<?xml version="1.0" encoding="UTF-8"?>
<svg width="30px" height="30px" viewBox="0 0 30 30" version="1.1" xmlns="http://www.w3.org/2000/svg" xmlns:xlink="http://www.w3.org/1999/xlink">
    <!-- Generator: sketchtool 50.2 (55047) - http://www.bohemiancoding.com/sketch -->
    <title>DCD251D3-C47F-443D-9573-78B4E618CCF4</title>
    <desc>Created with sketchtool.</desc>
    <defs></defs>
    <g id="Programs" stroke="none" stroke-width="1" fill="none" fill-rule="evenodd">
        <g id="Explore-Programs-|-Program-Options---Nursing" transform="translate(-237.000000, -1237.000000)" fill="#0074B3" fill-rule="nonzero">
            <g id="Group-5" transform="translate(224.000000, 1228.000000)">
                <path d="M28,39 C19.7157288,39 13,32.2842712 13,24 C13,15.7157288 19.7157288,9 28,9 C36.2842712,9 43,15.7157288 43,24 C43,32.2842712 36.2842712,39 28,39 Z M28,37 C35.1797017,37 41,31.1797017 41,24 C41,16.8202983 35.1797017,11 28,11 C20.8202983,11 15,16.8202983 15,24 C15,31.1797017 20.8202983,37 28,37 Z M25.2683786,18.2535685 L34.2683786,23.9908268 L25.2683786,29.7280851 L25.2683786,18.2535685 Z" id="Play-icon"></path>
            </g>
        </g>
    </g>
</svg>