<?xml version="1.0" encoding="utf-8"?>
<!-- Generator: Adobe Illustrator 16.0.0, SVG Export Plug-In . SVG Version: 6.00 Build 0)  -->
<!DOCTYPE svg PUBLIC "-//W3C//DTD SVG 1.1//EN" "http://www.w3.org/Graphics/SVG/1.1/DTD/svg11.dtd">
<svg version="1.1" id="Layer_1" xmlns="http://www.w3.org/2000/svg" xmlns:xlink="http://www.w3.org/1999/xlink" x="0px" y="0px"
	 width="50px" height="50px" viewBox="0 0 50 50" enable-background="new 0 0 50 50" xml:space="preserve">
<g>
	<path fill="#00B0B9" d="M40,7.5v3.125c1.667-0.083,3.333-0.125,5-0.125v30c-6.667,0-13.333,0.667-20,2c-6.667-1.333-13.333-2-20-2
		v-30c1.667,0,3.334,0.042,5,0.125V7.5c4,0,9,1.667,15,5C31,9.167,36,7.5,40,7.5z M43,12.521l-0.307,0.006
		c-0.897,0.021-1.795,0.055-2.693,0.1V35.5c-3.132,0-6.878,1.43-11.236,4.293c4.609-0.734,9.223-1.156,13.836-1.266l0.4-0.006
		V12.521z M7,12.521v26l0.4,0.006c4.612,0.109,9.224,0.531,13.835,1.265C16.877,36.932,13.132,35.5,10,35.5V12.628
		c-0.897-0.046-1.796-0.08-2.694-0.1L7,12.521L7,12.521z M12,9.645v24.009l0.339,0.054c3.439,0.595,7.312,2.458,11.661,5.553V14.233
		l-0.51-0.28c-4.284-2.331-7.976-3.737-11.05-4.241L12,9.645z M38,33.652V9.645l-0.073,0.01c-3.151,0.45-6.973,1.878-11.438,4.308
		L26,14.232V39.26c4.35-3.095,8.223-4.957,11.661-5.552L38,33.652z"/>
</g>
</svg>
