<?xml version="1.0" encoding="utf-8"?>
<!-- Generator: Adobe Illustrator 16.0.0, SVG Export Plug-In . SVG Version: 6.00 Build 0)  -->
<!DOCTYPE svg PUBLIC "-//W3C//DTD SVG 1.1//EN" "http://www.w3.org/Graphics/SVG/1.1/DTD/svg11.dtd">
<svg version="1.1" id="Layer_1" xmlns="http://www.w3.org/2000/svg" xmlns:xlink="http://www.w3.org/1999/xlink" x="0px" y="0px"
	 width="50px" height="50px" viewBox="0 0 50 50" enable-background="new 0 0 50 50" xml:space="preserve">
<g>
	<path fill="#00685E" d="M25.01,21c7.453,0,14.423,3.038,19.475,8.3l0.32,0.339l1.262,1.359l-1.261,1.359
		C39.73,37.832,32.621,41,25.01,41c-7.453,0-14.423-3.038-19.476-8.3l-0.319-0.339l-1.263-1.359l1.262-1.359
		C10.289,24.168,17.397,21,25.01,21z M25.01,23l-0.25,0.004c-4.301,0.131-7.75,3.661-7.75,7.996c0,4.418,3.582,8,8,8s8-3.582,8-8
		S29.428,23,25.01,23z M32.199,24.05l0.152,0.16c1.65,1.783,2.658,4.17,2.658,6.79c0,2.7-1.07,5.15-2.811,6.95
		c4.32-1.294,8.15-3.728,11.141-6.951C40.35,27.777,36.52,25.344,32.199,24.05L32.199,24.05z M17.819,24.05l-0.054,0.017
		C13.467,25.365,9.657,27.79,6.681,31c2.99,3.223,6.818,5.654,11.139,6.95c-1.74-1.8-2.81-4.25-2.81-6.95S16.079,25.85,17.819,24.05
		z M25.01,26c2.762,0,5,2.239,5,5s-2.238,5-5,5c-2.761,0-5-2.239-5-5S22.249,26,25.01,26z M25.01,28c-1.657,0-3,1.343-3,3
		s1.343,3,3,3s3-1.343,3-3S26.667,28,25.01,28z M1.548,18.157l6.743,4.306l-1.077,1.686l-6.742-4.306L1.548,18.157z M48.49,18.145
		l1.039,1.711l-6.84,4.15l-1.037-1.71l6.84-4.149L48.49,18.145z M11.814,11.407l4.746,6.44l-1.61,1.187l-4.746-6.44L11.814,11.407z
		 M38.205,11.407l1.609,1.186l-4.746,6.44l-1.609-1.186L38.205,11.407z M26.01,9v8h-2V9H26.01z"/>
</g>
</svg>
