<?xml version="1.0"?>
<!--Icons from directory ""-->
<svg xmlns="http://www.w3.org/2000/svg" width="30" height="150" viewBox="0 0 30 150"><svg id="closed-blue-transparent" viewBox="0 0 30 30" width="30" height="30" y="0"><style>.blue{fill:none;stroke:#0074b3;stroke-width:2;stroke-linecap:round}</style><g id="closed-blue-transparent-Symbols"><g id="closed-blue-transparent-Icon-_x2F_-UI-_x2F_-Accordion---Collapse"><g id="closed-blue-transparent-Group-7-Copy"><g id="closed-blue-transparent-Group" transform="translate(12 9.5)"><path id="closed-blue-transparent-Line" class="blue" d="M0 0l3 3 3-3"/><path id="closed-blue-transparent-Line_1_" class="blue" d="M0 11l3-3 3 3"/></g></g></g></g></svg><svg id="closed-transparent" viewBox="0 0 30 30" width="30" height="30" y="30"><style>.st0{fill:none;stroke:#fff;stroke-width:2;stroke-linecap:round}</style><g id="closed-transparent-Symbols"><g id="closed-transparent-Icon-_x2F_-UI-_x2F_-Accordion---Collapse"><g id="closed-transparent-Group-7-Copy"><g id="closed-transparent-Group" transform="translate(12 9.5)"><path id="closed-transparent-Line" class="st0" d="M0 0l3 3 3-3"/><path id="closed-transparent-Line_1_" class="st0" d="M0 11l3-3 3 3"/></g></g></g></g></svg><svg id="open-blue-bordered" viewBox="0 0 30 30" width="30" height="30" y="60"><style>.st1{fill:none;stroke:#fff;stroke-width:2;stroke-linecap:round}</style><g id="open-blue-bordered-Symbols"><g id="open-blue-bordered-Icon-_x2F_-UI-_x2F_-Accordion---Expand---Hover"><g id="open-blue-bordered-Group-2"><path id="open-blue-bordered-Rectangle-3" d="M15 1c7.7 0 14 6.3 14 14s-6.3 14-14 14S1 22.7 1 15 7.3 1 15 1z" fill="#0074b3" stroke="#fff" stroke-width="2"/><g id="open-blue-bordered-Group" transform="translate(12 9.5)"><path id="open-blue-bordered-Line" class="st1" d="M0 3l3-3 3 3"/><path id="open-blue-bordered-Line_1_" class="st1" d="M0 8l3 3 3-3"/></g></g></g></g></svg><svg id="open-blue-transparent" viewBox="-464 266 30 30" width="30" height="30" y="90"><style>.blue2{fill:none;stroke:#0074b3;stroke-width:2;stroke-linecap:round}</style><g id="open-blue-transparent-Symbols"><g id="open-blue-transparent-Icon-_x2F_-UI-_x2F_-Accordion---Expand---Hover"><g id="open-blue-transparent-Group-2"><g id="open-blue-transparent-Group" transform="translate(12 9.5)"><path id="open-blue-transparent-Line" class="blue2" d="M-464 269l3-3 3 3"/><path id="open-blue-transparent-Line_1_" class="blue2" d="M-464 274l3 3 3-3"/></g></g></g></g></svg><svg id="open-transparent" viewBox="0 0 30 30" width="30" height="30" y="120"><style>.st0{fill:none;stroke:#fff;stroke-width:2;stroke-linecap:round}</style><g id="open-transparent-Symbols"><g id="open-transparent-Icon-_x2F_-UI-_x2F_-Accordion---Expand---Hover"><g id="open-transparent-Group-2"><g id="open-transparent-Group" transform="translate(12 9.5)"><path id="open-transparent-Line" class="st0" d="M0 3l3-3 3 3"/><path id="open-transparent-Line_1_" class="st0" d="M0 8l3 3 3-3"/></g></g></g></g></svg></svg>
