<?xml version="1.0" encoding="UTF-8"?>
<svg width="53px" height="42px" viewBox="0 0 53 42" version="1.1" xmlns="http://www.w3.org/2000/svg" xmlns:xlink="http://www.w3.org/1999/xlink">
    <!-- Generator: sketchtool 50.2 (55047) - http://www.bohemiancoding.com/sketch -->
    <title>0C849A8C-790B-46BC-87DE-90A0CBB4ADDF</title>
    <desc>Created with sketchtool.</desc>
    <defs></defs>
    <g id="Symbols" stroke="none" stroke-width="1" fill="none" fill-rule="evenodd">
        <g id="Testimonial---Full-Width" transform="translate(-458.000000, -107.000000)" fill="#00C278">
            <g id="Group-3-Copy-2" transform="translate(120.000000, 59.000000)">
                <path d="M361.714844,80.34375 C361.714844,82.8437625 360.708994,85.0312406 358.697266,86.90625 C356.685537,88.7812594 354.312514,89.71875 351.578125,89.71875 C347.281229,89.71875 343.98048,88.292983 341.675781,85.4414062 C339.371082,82.5898295 338.21875,78.6445564 338.21875,73.6054688 C338.21875,68.9179453 340.201152,64.1914301 344.166016,59.4257812 C348.130879,54.6601324 352.906222,51.0468873 358.492188,48.5859375 L361.070312,52.7460938 C356.656228,54.894542 353.199231,57.394517 350.699219,60.2460938 C348.199206,63.0976705 346.753908,66.5546672 346.363281,70.6171875 L349.644531,70.6171875 C352.066418,70.6171875 354.039055,70.8906223 355.5625,71.4375 C357.085945,71.9843777 358.316402,72.7460889 359.253906,73.7226562 C360.152348,74.6601609 360.787108,75.6953068 361.158203,76.828125 C361.529299,77.9609432 361.714844,79.1328064 361.714844,80.34375 Z M390.601562,80.34375 C390.601562,82.8437625 389.595713,85.0312406 387.583984,86.90625 C385.572256,88.7812594 383.199232,89.71875 380.464844,89.71875 C376.167947,89.71875 372.867199,88.292983 370.5625,85.4414062 C368.257801,82.5898295 367.105469,78.6445564 367.105469,73.6054688 C367.105469,68.9179453 369.087871,64.1914301 373.052734,59.4257812 C377.017598,54.6601324 381.792941,51.0468873 387.378906,48.5859375 L389.957031,52.7460938 C385.542947,54.894542 382.08595,57.394517 379.585938,60.2460938 C377.085925,63.0976705 375.640627,66.5546672 375.25,70.6171875 L378.53125,70.6171875 C380.953137,70.6171875 382.925774,70.8906223 384.449219,71.4375 C385.972664,71.9843777 387.20312,72.7460889 388.140625,73.7226562 C389.039067,74.6601609 389.673826,75.6953068 390.044922,76.828125 C390.416017,77.9609432 390.601562,79.1328064 390.601562,80.34375 Z" id="“-copy-6"></path>
            </g>
        </g>
    </g>
</svg>