<?xml version="1.0" encoding="utf-8"?>
<!-- Generator: Adobe Illustrator 16.0.0, SVG Export Plug-In . SVG Version: 6.00 Build 0)  -->
<!DOCTYPE svg PUBLIC "-//W3C//DTD SVG 1.1//EN" "http://www.w3.org/Graphics/SVG/1.1/DTD/svg11.dtd">
<svg version="1.1" xmlns="http://www.w3.org/2000/svg" xmlns:xlink="http://www.w3.org/1999/xlink" x="0px" y="0px" width="60px"
	 height="600px" viewBox="0 0 60 600" enable-background="new 0 0 60 600" xml:space="preserve">
<g id="Layer_1">
	<path id="icon-bg-book" fill="#010101" d="M51.012,139.115c0.695,0.99,0.852,2.109,0.469,3.359l-7.161,23.594
		c-0.33,1.111-0.994,2.044-1.992,2.799c-0.999,0.755-2.062,1.133-3.19,1.133H15.101c-1.337,0-2.626-0.464-3.867-1.393
		c-1.242-0.929-2.105-2.07-2.591-3.424c-0.417-1.164-0.434-2.266-0.052-3.308c0-0.069,0.026-0.304,0.078-0.703
		c0.052-0.399,0.087-0.72,0.104-0.963c0.017-0.139-0.009-0.326-0.078-0.56c-0.07-0.234-0.096-0.403-0.078-0.508
		c0.035-0.191,0.104-0.373,0.208-0.547c0.104-0.173,0.248-0.377,0.43-0.612c0.183-0.234,0.326-0.438,0.43-0.612
		c0.399-0.66,0.79-1.454,1.171-2.383c0.382-0.929,0.643-1.723,0.781-2.383c0.052-0.174,0.057-0.434,0.013-0.781
		s-0.048-0.59-0.013-0.729c0.052-0.191,0.2-0.434,0.443-0.729s0.391-0.495,0.443-0.599c0.365-0.625,0.729-1.423,1.094-2.396
		s0.582-1.753,0.651-2.344c0.018-0.156-0.004-0.434-0.065-0.833c-0.061-0.399-0.057-0.643,0.013-0.729
		c0.07-0.226,0.261-0.491,0.573-0.794s0.503-0.499,0.573-0.586c0.33-0.451,0.699-1.185,1.107-2.201
		c0.408-1.016,0.646-1.853,0.716-2.513c0.018-0.139-0.008-0.36-0.078-0.664c-0.069-0.304-0.086-0.534-0.052-0.69
		c0.035-0.139,0.113-0.295,0.234-0.469c0.122-0.173,0.278-0.373,0.469-0.599s0.338-0.408,0.442-0.547
		c0.139-0.208,0.282-0.473,0.43-0.794c0.147-0.321,0.277-0.625,0.39-0.911c0.113-0.287,0.252-0.599,0.417-0.938
		c0.165-0.338,0.334-0.616,0.508-0.833c0.173-0.217,0.403-0.421,0.69-0.612s0.599-0.291,0.938-0.299
		c0.339-0.009,0.751,0.039,1.237,0.143l-0.026,0.079c0.66-0.157,1.103-0.235,1.328-0.235h19.818c1.284,0,2.274,0.486,2.969,1.458
		s0.851,2.101,0.469,3.386l-7.136,23.593c-0.625,2.066-1.245,3.398-1.861,3.998c-0.617,0.599-1.732,0.898-3.347,0.898h-22.63
		c-0.469,0-0.798,0.13-0.99,0.391c-0.191,0.278-0.199,0.651-0.026,1.12c0.417,1.215,1.667,1.823,3.75,1.823h24.037
		c0.503,0,0.989-0.135,1.458-0.404s0.773-0.629,0.912-1.081l7.813-25.703c0.121-0.382,0.164-0.877,0.13-1.484
		C50.135,138.255,50.647,138.629,51.012,139.115z M23.304,139.167c-0.069,0.226-0.052,0.421,0.052,0.586
		c0.104,0.165,0.278,0.247,0.521,0.247H39.71c0.226,0,0.446-0.082,0.664-0.247c0.217-0.165,0.36-0.36,0.43-0.586l0.547-1.667
		c0.069-0.226,0.052-0.421-0.052-0.586c-0.104-0.165-0.278-0.247-0.521-0.247H24.944c-0.226,0-0.447,0.083-0.664,0.247
		c-0.217,0.165-0.36,0.36-0.43,0.586L23.304,139.167z M21.142,145.833c-0.069,0.226-0.052,0.421,0.052,0.586
		s0.278,0.248,0.521,0.248h15.834c0.225,0,0.447-0.083,0.664-0.248s0.359-0.36,0.43-0.586l0.547-1.667
		c0.069-0.226,0.052-0.421-0.053-0.586c-0.104-0.165-0.277-0.248-0.521-0.248H22.783c-0.226,0-0.447,0.083-0.664,0.248
		c-0.217,0.165-0.36,0.36-0.43,0.586L21.142,145.833z"/>
	<path id="icon-bg-calendar" fill="#010101" d="M11.667,290h7.5v-7.5h-7.5V290z M20.833,290h8.333v-7.5h-8.333V290z M11.667,280.833
		h7.5V272.5h-7.5V280.833z M20.833,280.833h8.333V272.5h-8.333V280.833z M11.667,270.833h7.5v-7.5h-7.5V270.833z M30.833,290h8.333
		v-7.5h-8.333V290z M20.833,270.833h8.333v-7.5h-8.333V270.833z M40.834,290h7.5v-7.5h-7.5V290z M30.833,280.833h8.333V272.5h-8.333
		V280.833z M21.667,258.333v-7.5c0-0.226-0.083-0.421-0.247-0.586c-0.165-0.165-0.36-0.247-0.586-0.247h-1.667
		c-0.226,0-0.421,0.082-0.586,0.247c-0.165,0.165-0.247,0.36-0.247,0.586v7.5c0,0.226,0.083,0.421,0.247,0.586
		c0.165,0.165,0.36,0.248,0.586,0.248h1.667c0.226,0,0.421-0.083,0.586-0.248C21.584,258.754,21.667,258.559,21.667,258.333z
		 M40.834,280.833h7.5V272.5h-7.5V280.833z M30.833,270.833h8.333v-7.5h-8.333V270.833z M40.834,270.833h7.5v-7.5h-7.5V270.833z
		 M41.666,258.333v-7.5c0-0.226-0.082-0.421-0.246-0.586c-0.166-0.165-0.361-0.247-0.586-0.247h-1.668
		c-0.225,0-0.42,0.082-0.586,0.247c-0.164,0.165-0.246,0.36-0.246,0.586v7.5c0,0.226,0.082,0.421,0.246,0.586
		c0.166,0.165,0.361,0.248,0.586,0.248h1.668c0.225,0,0.42-0.083,0.586-0.248C41.584,258.754,41.666,258.559,41.666,258.333z
		 M51.666,256.667V290c0,0.902-0.329,1.684-0.988,2.344c-0.66,0.659-1.441,0.989-2.344,0.989H11.667
		c-0.902,0-1.684-0.33-2.343-0.989c-0.66-0.66-0.99-1.441-0.99-2.344v-33.333c0-0.903,0.33-1.685,0.99-2.344
		c0.659-0.66,1.441-0.99,2.343-0.99H15v-2.5c0-1.146,0.408-2.127,1.224-2.942c0.816-0.816,1.797-1.224,2.942-1.224h1.667
		c1.146,0,2.126,0.407,2.942,1.224c0.816,0.815,1.224,1.797,1.224,2.942v2.5h10v-2.5c0-1.146,0.408-2.127,1.225-2.942
		c0.815-0.816,1.797-1.224,2.941-1.224h1.668c1.145,0,2.126,0.407,2.941,1.224c0.816,0.815,1.225,1.797,1.225,2.942v2.5h3.334
		c0.902,0,1.684,0.33,2.344,0.99C51.337,254.982,51.666,255.764,51.666,256.667z"/>
	<path id="icon-bg-clock-o" fill="#010101" d="M33.334,20.833V32.5c0,0.243-0.079,0.443-0.234,0.599
		c-0.156,0.156-0.356,0.234-0.6,0.234h-8.333c-0.243,0-0.442-0.078-0.599-0.234c-0.157-0.156-0.234-0.356-0.234-0.599v-1.667
		c0-0.243,0.078-0.443,0.234-0.599C23.724,30.078,23.924,30,24.167,30H30v-9.167c0-0.243,0.078-0.443,0.234-0.599
		S30.59,20,30.833,20H32.5c0.243,0,0.443,0.078,0.6,0.234C33.255,20.391,33.334,20.59,33.334,20.833z M44.166,30
		c0-2.569-0.633-4.939-1.9-7.109c-1.268-2.17-2.986-3.889-5.156-5.156s-4.54-1.901-7.109-1.901s-4.939,0.633-7.109,1.901
		c-2.17,1.268-3.889,2.986-5.156,5.156c-1.268,2.17-1.901,4.54-1.901,7.109s0.633,4.939,1.901,7.109
		c1.268,2.17,2.986,3.889,5.156,5.156c2.17,1.268,4.54,1.901,7.109,1.901s4.939-0.633,7.109-1.901s3.889-2.986,5.156-5.156
		C43.533,34.939,44.166,32.569,44.166,30z M50,30c0,3.628-0.895,6.975-2.682,10.039c-1.789,3.064-4.215,5.491-7.279,7.279
		S33.629,50,30,50c-3.628,0-6.975-0.894-10.039-2.682c-3.064-1.788-5.49-4.214-7.279-7.279C10.894,36.975,10,33.628,10,30
		s0.894-6.975,2.682-10.039c1.789-3.064,4.215-5.49,7.279-7.278C23.025,10.894,26.372,10,30,10c3.629,0,6.975,0.894,10.039,2.683
		c3.064,1.788,5.49,4.214,7.279,7.278C49.105,23.025,50,26.372,50,30z"/>
	<path id="icon-bg-credit-card" fill="#010101" d="M50.834,70c1.145,0,2.127,0.408,2.941,1.224C54.592,72.04,55,73.021,55,74.167
		v31.667c0,1.146-0.408,2.127-1.225,2.943c-0.814,0.816-1.797,1.224-2.941,1.224H9.167c-1.146,0-2.127-0.408-2.943-1.224
		S5,106.979,5,105.833V74.167c0-1.146,0.408-2.127,1.224-2.943S8.021,70,9.167,70H50.834z M9.167,73.333
		c-0.226,0-0.421,0.083-0.586,0.248c-0.165,0.165-0.248,0.36-0.248,0.586V80h43.333v-5.833c0-0.226-0.082-0.421-0.246-0.586
		c-0.166-0.165-0.361-0.248-0.586-0.248H9.167z M50.834,106.667c0.225,0,0.42-0.083,0.586-0.248c0.164-0.165,0.246-0.36,0.246-0.586
		V90H8.333v15.833c0,0.226,0.083,0.421,0.248,0.586c0.165,0.165,0.36,0.248,0.586,0.248H50.834z M11.667,103.333V100h6.667v3.333
		H11.667z M21.667,103.333V100h10v3.333H21.667z"/>
	<path id="icon-bg-map-marker" fill="#010101" d="M36.666,203.333c0-1.84-0.65-3.412-1.953-4.713
		c-1.301-1.302-2.873-1.953-4.713-1.953c-1.84,0-3.412,0.651-4.713,1.953c-1.302,1.302-1.953,2.873-1.953,4.713
		s0.651,3.412,1.953,4.713C26.588,209.349,28.16,210,30,210c1.84,0,3.412-0.651,4.713-1.953
		C36.016,206.745,36.666,205.174,36.666,203.333z M43.334,203.333c0,1.892-0.287,3.446-0.859,4.662l-9.48,20.156
		c-0.277,0.573-0.689,1.024-1.236,1.354S30.625,230,30,230s-1.211-0.165-1.758-0.495s-0.95-0.781-1.211-1.354l-9.505-20.156
		c-0.573-1.215-0.859-2.77-0.859-4.662c0-3.681,1.302-6.823,3.906-9.427C23.177,191.302,26.319,190,30,190s6.822,1.302,9.428,3.906
		C42.031,196.511,43.334,199.653,43.334,203.333z"/>
	<path id="icon-bg-money" fill="#010101" d="M25,336.667h10v-2.5h-3.333V322.5h-2.969l-3.854,3.567l2.005,2.084
		c0.729-0.643,1.207-1.138,1.432-1.484h0.052v7.5H25V336.667z M38.334,330c0,1.215-0.183,2.448-0.547,3.698
		c-0.365,1.25-0.882,2.413-1.55,3.489c-0.669,1.076-1.55,1.953-2.644,2.63c-1.094,0.678-2.291,1.016-3.594,1.016
		c-1.302,0-2.5-0.338-3.594-1.016c-1.094-0.677-1.975-1.554-2.643-2.63s-1.185-2.239-1.549-3.489
		c-0.365-1.25-0.547-2.483-0.547-3.698s0.182-2.448,0.547-3.698c0.364-1.25,0.881-2.413,1.549-3.489s1.549-1.953,2.643-2.63
		c1.094-0.678,2.292-1.016,3.594-1.016c1.303,0,2.5,0.338,3.594,1.016c1.094,0.677,1.975,1.554,2.644,2.63
		c0.668,1.076,1.185,2.239,1.55,3.489C38.151,327.552,38.334,328.785,38.334,330z M51.666,336.667v-13.334
		c-1.84,0-3.41-0.65-4.713-1.953C45.65,320.078,45,318.507,45,316.667H15c0,1.84-0.651,3.411-1.953,4.713
		c-1.302,1.303-2.873,1.953-4.713,1.953v13.334c1.84,0,3.411,0.65,4.713,1.953c1.302,1.302,1.953,2.873,1.953,4.713h30
		c0-1.84,0.65-3.411,1.953-4.713C48.256,337.317,49.826,336.667,51.666,336.667z M55,315v30c0,0.451-0.165,0.842-0.494,1.172
		c-0.33,0.33-0.721,0.495-1.172,0.495H6.667c-0.452,0-0.842-0.165-1.172-0.495C5.165,345.842,5,345.451,5,345v-30
		c0-0.451,0.165-0.842,0.495-1.172c0.33-0.33,0.72-0.495,1.172-0.495h46.667c0.451,0,0.842,0.165,1.172,0.495
		C54.835,314.158,55,314.549,55,315z"/>
	<path id="icon-bg-mortar-board" fill="#010101" d="M46.197,388.438l0.469,8.229c0.07,1.197-0.642,2.309-2.135,3.333
		s-3.533,1.836-6.119,2.435c-2.588,0.6-5.391,0.898-8.412,0.898c-3.021,0-5.825-0.299-8.412-0.898
		c-2.586-0.599-4.626-1.41-6.12-2.435s-2.205-2.136-2.135-3.333l0.469-8.229l14.948,4.714c0.382,0.121,0.798,0.182,1.25,0.182
		s0.868-0.061,1.25-0.182L46.197,388.438z M60,380c0,0.399-0.191,0.668-0.573,0.808l-29.167,9.166C30.191,389.991,30.104,390,30,390
		s-0.191-0.009-0.26-0.026l-16.979-5.364c-0.747,0.59-1.363,1.559-1.849,2.903c-0.486,1.346-0.781,2.896-0.886,4.648
		c1.094,0.625,1.641,1.571,1.641,2.839c0,1.198-0.503,2.127-1.51,2.786l1.51,11.276c0.035,0.243-0.035,0.46-0.208,0.651
		c-0.156,0.19-0.365,0.286-0.625,0.286h-5c-0.261,0-0.469-0.096-0.625-0.286c-0.174-0.191-0.243-0.408-0.208-0.651l1.511-11.276
		C5.503,397.127,5,396.198,5,395c0-1.268,0.564-2.231,1.693-2.891c0.191-3.594,1.042-6.458,2.552-8.594l-8.672-2.708
		C0.191,380.668,0,380.399,0,380s0.191-0.668,0.573-0.808l29.167-9.166C29.809,370.009,29.896,370,30,370s0.191,0.009,0.26,0.026
		l29.167,9.166C59.809,379.332,60,379.601,60,380z"/>
	<path id="icon-bg-trophy" fill="#010101" d="M20.26,449.662c-1.285-2.813-1.927-6.033-1.927-9.662h-6.667v2.5
		c0,1.354,0.82,2.76,2.461,4.219S17.813,449.158,20.26,449.662z M48.334,442.5V440h-6.668c0,3.629-0.642,6.85-1.926,9.662
		c2.447-0.504,4.492-1.484,6.133-2.943S48.334,443.854,48.334,442.5z M51.666,439.166v3.334c0,1.232-0.359,2.475-1.08,3.725
		s-1.693,2.378-2.916,3.385c-1.225,1.007-2.727,1.854-4.506,2.539s-3.65,1.072-5.611,1.158c-0.73,0.938-1.555,1.763-2.475,2.475
		c-0.66,0.59-1.115,1.22-1.367,1.889c-0.252,0.668-0.377,1.445-0.377,2.33c0,0.938,0.264,1.728,0.794,2.369
		c0.529,0.643,1.376,0.965,2.538,0.965c1.303,0,2.461,0.395,3.477,1.184c1.016,0.791,1.523,1.784,1.523,2.982v1.666
		c0,0.244-0.078,0.443-0.234,0.6S41.076,470,40.834,470H19.167c-0.243,0-0.442-0.078-0.599-0.234s-0.234-0.355-0.234-0.6V467.5
		c0-1.198,0.508-2.191,1.523-2.982c1.016-0.789,2.174-1.184,3.477-1.184c1.163,0,2.009-0.322,2.539-0.965
		c0.529-0.642,0.794-1.432,0.794-2.369c0-0.885-0.125-1.662-0.377-2.33c-0.251-0.669-0.708-1.299-1.367-1.889
		c-0.92-0.712-1.745-1.537-2.474-2.475c-1.961-0.086-3.833-0.473-5.612-1.158s-3.281-1.532-4.505-2.539
		c-1.224-1.007-2.196-2.135-2.917-3.385c-0.72-1.25-1.081-2.492-1.081-3.725v-3.334c0-0.693,0.243-1.284,0.729-1.77
		c0.486-0.486,1.076-0.73,1.771-0.73h7.5v-2.5c0-1.145,0.408-2.126,1.224-2.941C20.374,430.408,21.354,430,22.5,430h15
		c1.146,0,2.127,0.408,2.943,1.225c0.815,0.815,1.223,1.797,1.223,2.941v2.5h7.5c0.695,0,1.285,0.244,1.771,0.73
		C51.424,437.882,51.666,438.473,51.666,439.166z"/>
	<path id="icon-bg-dollar" fill="#010101" d="M40.413,516.451c0,2.277-0.739,4.238-2.221,5.882c-1.48,1.644-3.404,2.66-5.77,3.047
		v3.906c0,0.208-0.067,0.379-0.202,0.513c-0.133,0.133-0.305,0.201-0.512,0.201h-3.015c-0.193,0-0.361-0.071-0.502-0.212
		c-0.142-0.142-0.212-0.309-0.212-0.502v-3.906c-0.982-0.135-1.931-0.365-2.846-0.692c-0.915-0.327-1.67-0.659-2.266-0.993
		c-0.595-0.335-1.146-0.692-1.652-1.072c-0.506-0.379-0.852-0.659-1.038-0.836c-0.186-0.179-0.316-0.313-0.391-0.402
		c-0.252-0.313-0.268-0.617-0.044-0.915l2.299-3.013c0.105-0.149,0.275-0.238,0.513-0.268c0.224-0.03,0.402,0.037,0.536,0.201
		l0.044,0.044c1.682,1.474,3.49,2.404,5.425,2.791c0.55,0.119,1.101,0.178,1.651,0.178c1.205,0,2.266-0.32,3.18-0.959
		c0.916-0.641,1.374-1.548,1.374-2.724c0-0.417-0.112-0.811-0.335-1.183c-0.223-0.373-0.473-0.685-0.748-0.938
		c-0.275-0.253-0.711-0.533-1.307-0.838c-0.594-0.305-1.086-0.543-1.472-0.714c-0.387-0.171-0.982-0.413-1.786-0.726
		c-0.581-0.238-1.038-0.424-1.373-0.558c-0.334-0.133-0.792-0.331-1.373-0.591c-0.58-0.261-1.045-0.491-1.395-0.692
		c-0.35-0.201-0.77-0.465-1.261-0.792s-0.889-0.644-1.194-0.948c-0.305-0.306-0.629-0.67-0.971-1.094
		c-0.342-0.424-0.606-0.856-0.793-1.295c-0.186-0.439-0.342-0.934-0.468-1.484s-0.19-1.131-0.19-1.741
		c0-2.054,0.729-3.854,2.188-5.401c1.459-1.548,3.355-2.545,5.692-2.992v-4.018c0-0.193,0.07-0.36,0.212-0.502
		c0.141-0.141,0.309-0.212,0.502-0.212h3.015c0.207,0,0.379,0.067,0.512,0.201c0.135,0.134,0.202,0.305,0.202,0.513v3.929
		c0.848,0.089,1.669,0.26,2.466,0.513s1.443,0.502,1.941,0.748c0.5,0.246,0.973,0.525,1.418,0.837
		c0.446,0.313,0.737,0.528,0.871,0.647c0.133,0.119,0.245,0.224,0.334,0.313c0.253,0.268,0.291,0.55,0.111,0.849l-1.808,3.258
		c-0.118,0.224-0.29,0.343-0.513,0.357c-0.209,0.045-0.41-0.007-0.604-0.156c-0.045-0.045-0.152-0.134-0.322-0.268
		c-0.172-0.134-0.462-0.331-0.871-0.592c-0.41-0.26-0.845-0.498-1.307-0.714c-0.461-0.215-1.015-0.409-1.662-0.581
		c-0.648-0.17-1.284-0.256-1.909-0.256c-1.414,0-2.566,0.32-3.459,0.959c-0.893,0.641-1.339,1.466-1.339,2.479
		c0,0.387,0.063,0.744,0.189,1.071c0.127,0.328,0.346,0.636,0.659,0.927c0.313,0.29,0.607,0.536,0.882,0.737
		c0.275,0.201,0.692,0.431,1.25,0.691s1.008,0.461,1.35,0.603c0.342,0.141,0.863,0.346,1.563,0.614
		c0.789,0.297,1.392,0.532,1.808,0.703c0.418,0.171,0.983,0.432,1.697,0.781s1.275,0.666,1.686,0.949
		c0.409,0.283,0.87,0.655,1.383,1.116c0.514,0.461,0.909,0.934,1.184,1.418c0.275,0.483,0.51,1.053,0.703,1.707
		C40.316,515.007,40.413,515.707,40.413,516.451z"/>
	<path id="icon-bg-certificate-solid" fill="#010101" d="M49.452,558.204l-7.648-7.656c-0.602-0.603-1.25-0.547-1.805-0.547v10h10
		C49.999,559.413,50.049,558.802,49.452,558.204z M37.499,560.626v-10.625H21.875c-1.039,0-1.875,0.836-1.875,1.875v8.515
		C21.43,560,21.529,560,22.066,560c1.268,0,2.508,0.521,3.401,1.43c0.681,0.75,0.344,0.546,1.428,0.841
		c1.646,0.449,2.94,1.76,3.377,3.421c0.243,1.031,0.047,0.676,0.84,1.484c1.191,1.211,1.661,2.989,1.227,4.637
		c-0.293,1.034-0.289,0.625,0,1.729c0.436,1.649-0.035,3.426-1.226,4.638c-0.753,0.731-0.55,0.382-0.84,1.484
		c-0.382,1.453-1.419,2.637-2.773,3.212V590h20.624c1.039,0,1.875-0.836,1.875-1.875v-25.624H39.374
		C38.343,562.501,37.499,561.657,37.499,560.626z M29.329,576.429c0.578-0.588,0.805-1.445,0.593-2.25
		c-0.425-1.613-0.425-1.386,0-3.002c0.212-0.803-0.015-1.661-0.593-2.249c-1.16-1.182-1.049-0.986-1.474-2.6
		c-0.212-0.803-0.828-1.431-1.618-1.646c-1.585-0.432-1.394-0.32-2.554-1.5c-0.578-0.589-1.421-0.818-2.21-0.603
		c-1.587,0.433-1.364,0.432-2.949,0c-0.789-0.215-1.63,0.015-2.208,0.603c-1.165,1.185-0.977,1.07-2.555,1.5
		c-0.789,0.216-1.406,0.843-1.617,1.646c-0.427,1.621-0.313,1.417-1.475,2.6c-0.578,0.588-0.804,1.445-0.592,2.249
		c0.426,1.619,0.423,1.39,0,3.001c-0.212,0.803,0.014,1.661,0.592,2.249c1.16,1.181,1.049,0.986,1.475,2.6
		c0.211,0.803,0.828,1.431,1.617,1.646c1.118,0.305,0.9,0.232,1.238,0.391V590l4.999-2.5l5,2.5v-8.936
		c0.337-0.158,0.118-0.086,1.238-0.391c0.789-0.215,1.406-0.842,1.617-1.646C28.282,577.407,28.168,577.611,29.329,576.429z
		 M20,577.501c-2.761,0-5-2.238-5-5s2.239-5,5-5s5,2.238,5,5S22.761,577.501,20,577.501z"/>
</g>
</svg>