<?xml version="1.0"?>
<!--Icons from directory ""-->
<svg xmlns="http://www.w3.org/2000/svg" width="300" height="2400" viewBox="0 0 300 2400"><svg width="300" height="300" viewBox="0 0 1792 1792" id="book" y="0"><path d="M1703 478q40 57 18 129l-275 906q-19 64-76.5 107.5T1247 1664H324q-77 0-148.5-53.5T76 1479q-24-67-2-127 0-4 3-27t4-37q1-8-3-21.5t-3-19.5q2-11 8-21t16.5-23.5T116 1179q23-38 45-91.5t30-91.5q3-10 .5-30t-.5-28q3-11 17-28t17-23q21-36 42-92t25-90q1-9-2.5-32t.5-28q4-13 22-30.5t22-22.5q19-26 42.5-84.5T404 411q1-8-3-25.5t-2-26.5q2-8 9-18t18-23 17-21q8-12 16.5-30.5t15-35 16-36 19.5-32 26.5-23.5 36-11.5T620 134l-1 3q38-9 51-9h761q74 0 114 56t18 130l-274 906q-36 119-71.5 153.5T1089 1408H220q-27 0-38 15-11 16-1 43 24 70 144 70h923q29 0 56-15.5t35-41.5l300-987q7-22 5-57 38 15 59 43zm-1064 2q-4 13 2 22.5t20 9.5h608q13 0 25.5-9.5T1311 480l21-64q4-13-2-22.5t-20-9.5H702q-13 0-25.5 9.5T660 416zm-83 256q-4 13 2 22.5t20 9.5h608q13 0 25.5-9.5T1228 736l21-64q4-13-2-22.5t-20-9.5H619q-13 0-25.5 9.5T577 672z"/></svg><svg width="300" height="300" viewBox="0 0 1792 1792" id="calendar" y="300"><path d="M192 1664h288v-288H192v288zm352 0h320v-288H544v288zm-352-352h288V992H192v320zm352 0h320V992H544v320zM192 928h288V640H192v288zm736 736h320v-288H928v288zM544 928h320V640H544v288zm768 736h288v-288h-288v288zm-384-352h320V992H928v320zM576 448V160q0-13-9.5-22.5T544 128h-64q-13 0-22.5 9.5T448 160v288q0 13 9.5 22.5T480 480h64q13 0 22.5-9.5T576 448zm736 864h288V992h-288v320zM928 928h320V640H928v288zm384 0h288V640h-288v288zm32-480V160q0-13-9.5-22.5T1312 128h-64q-13 0-22.5 9.5T1216 160v288q0 13 9.5 22.5t22.5 9.5h64q13 0 22.5-9.5t9.5-22.5zm384-64v1280q0 52-38 90t-90 38H192q-52 0-90-38t-38-90V384q0-52 38-90t90-38h128v-96q0-66 47-113T480 0h64q66 0 113 47t47 113v96h384v-96q0-66 47-113t113-47h64q66 0 113 47t47 113v96h128q52 0 90 38t38 90z"/></svg><svg width="300" height="300" viewBox="0 0 1792 1792" id="clock-o" y="600"><path d="M1024 544v448q0 14-9 23t-23 9H672q-14 0-23-9t-9-23v-64q0-14 9-23t23-9h224V544q0-14 9-23t23-9h64q14 0 23 9t9 23zm416 352q0-148-73-273t-198-198-273-73-273 73-198 198-73 273 73 273 198 198 273 73 273-73 198-198 73-273zm224 0q0 209-103 385.5T1281.5 1561 896 1664t-385.5-103T231 1281.5 128 896t103-385.5T510.5 231 896 128t385.5 103T1561 510.5 1664 896z"/></svg><svg width="300" height="300" viewBox="0 0 1792 1792" id="credit-card" y="900"><path d="M1696 128q66 0 113 47t47 113v1216q0 66-47 113t-113 47H96q-66 0-113-47t-47-113V288q0-66 47-113t113-47h1600zM96 256q-13 0-22.5 9.5T64 288v224h1664V288q0-13-9.5-22.5T1696 256H96zm1600 1280q13 0 22.5-9.5t9.5-22.5V896H64v608q0 13 9.5 22.5T96 1536h1600zM192 1408v-128h256v128H192zm384 0v-128h384v128H576z"/></svg><svg width="300" height="300" viewBox="0 0 1792 1792" id="map-marker" y="1200"><path d="M1152 640q0-106-75-181t-181-75-181 75-75 181 75 181 181 75 181-75 75-181zm256 0q0 109-33 179l-364 774q-16 33-47.5 52t-67.5 19-67.5-19-46.5-52L417 819q-33-70-33-179 0-212 150-362t362-150 362 150 150 362z"/></svg><svg width="300" height="300" viewBox="0 0 1792 1792" id="money" y="1500"><path d="M704 1152h384v-96H960V608H846L698 745l77 80q42-37 55-57h2v288H704v96zm512-256q0 70-21 142t-59.5 134-101.5 101-138 39-138-39-101.5-101-59.5-134-21-142 21-142 59.5-134T758 519t138-39 138 39 101.5 101 59.5 134 21 142zm512 256V640q-106 0-181-75t-75-181H320q0 106-75 181T64 640v512q106 0 181 75t75 181h1152q0-106 75-181t181-75zm128-832v1152q0 26-19 45t-45 19H0q-26 0-45-19t-19-45V320q0-26 19-45t45-19h1792q26 0 45 19t19 45z"/></svg><svg width="300" height="300" viewBox="0 0 1792 1792" id="mortar-board" y="1800"><path d="M1518 836l18 316q4 69-82 128t-235 93.5-323 34.5-323-34.5-235-93.5-82-128l18-316 574 181q22 7 48 7t48-7zm530-324q0 23-22 31L906 895q-4 1-10 1t-10-1L234 689q-43 34-71 111.5T129 979q63 36 63 109 0 69-58 107l58 433q2 14-8 25-9 11-24 11H-32q-15 0-24-11-10-11-8-25l58-433q-58-38-58-107 0-73 65-111 11-207 98-330l-333-104q-22-8-22-31t22-31L886 129q4-1 10-1t10 1l1120 352q22 8 22 31z"/></svg><svg width="300" height="300" viewBox="0 0 1792 1792" id="trophy" y="2100"><path d="M522 883q-74-162-74-371H192v96q0 78 94.5 162T522 883zm1078-275v-96h-256q0 209-74 371 141-29 235.5-113t94.5-162zm128-128v128q0 71-41.5 143t-112 130-173 97.5T1186 1023q-42 54-95 95-38 34-52.5 72.5T1024 1280q0 54 30.5 91t97.5 37q75 0 133.5 45.5T1344 1568v64q0 14-9 23t-23 9H480q-14 0-23-9t-9-23v-64q0-69 58.5-114.5T640 1408q67 0 97.5-37t30.5-91q0-51-14.5-89.5T701 1118q-53-41-95-95-113-5-215.5-44.5t-173-97.5-112-130T64 608V480q0-40 28-68t68-28h288v-96q0-66 47-113t113-47h576q66 0 113 47t47 113v96h288q40 0 68 28t28 68z"/></svg></svg>
