<?xml version="1.0" encoding="utf-8"?>
<!-- Generator: Adobe Illustrator 19.0.0, SVG Export Plug-In . SVG Version: 6.00 Build 0)  -->
<svg version="1.1" id="Layer_1" xmlns="http://www.w3.org/2000/svg" xmlns:xlink="http://www.w3.org/1999/xlink" x="0px" y="0px"
	 viewBox="416 -616 1792 1792" style="enable-background:new 416 -616 1792 1792;" xml:space="preserve">
<path d="M1803.6-464.7H820.4c-52,0-96.5,18.5-133.5,55.5s-55.5,81.5-55.5,133.5v983.3c0,52,18.5,96.5,55.5,133.5
	s81.5,55.5,133.5,55.5h983.3c52,0,96.5-18.5,133.5-55.5c37-37,55.5-81.5,55.5-133.5v-983.3c0-52-18.5-96.5-55.5-133.5
	C1900.2-446.2,1855.6-464.7,1803.6-464.7z M2144-275.6v983.3c0,93.8-33.3,173.9-99.9,240.5s-146.7,99.9-240.5,99.9H820.4
	c-93.8,0-173.9-33.3-240.5-99.9S480,801.4,480,707.6v-983.3c0-93.8,33.3-173.9,99.9-240.5S726.6-616,820.4-616h983.3
	c93.8,0,173.9,33.3,240.5,99.9S2144-369.4,2144-275.6z"/>
</svg>
