<?xml version="1.0" encoding="utf-8"?>
<!-- Generator: Adobe Illustrator 19.0.0, SVG Export Plug-In . SVG Version: 6.00 Build 0)  -->
<svg version="1.1" id="Layer_1" xmlns="http://www.w3.org/2000/svg" xmlns:xlink="http://www.w3.org/1999/xlink" x="0px" y="0px"
	 viewBox="416 -616 1792 1792" style="enable-background:new 416 -616 1792 1792;" xml:space="preserve">
<style type="text/css">
	.st0{fill:#B70000;}
</style>
<path class="st0" d="M2014,700.5c0,31-10.8,57.3-32.5,79l-158,158c-21.7,21.7-48,32.5-79,32.5c-31,0-57.3-10.8-79-32.5L1324,596
	L982.5,937.5c-21.7,21.7-48,32.5-79,32.5c-31,0-57.3-10.8-79-32.5l-158-158c-21.7-21.7-32.5-48-32.5-79c0-31,10.8-57.3,32.5-79
	L1008,280L666.5-61.5c-21.7-21.7-32.5-48-32.5-79s10.8-57.3,32.5-79l158-158c21.7-21.7,48-32.5,79-32.5c31,0,57.3,10.8,79,32.5
	L1324-36l341.5-341.5c21.7-21.7,48-32.5,79-32.5c31,0,57.3,10.8,79,32.5l158,158c21.7,21.7,32.5,48,32.5,79s-10.8,57.3-32.5,79
	L1640,280l341.5,341.5C2003.2,643.2,2014,669.5,2014,700.5z"/>
</svg>
