<?xml version="1.0" encoding="utf-8"?>
<!-- Generator: Adobe Illustrator 16.0.0, SVG Export Plug-In . SVG Version: 6.00 Build 0)  -->
<!DOCTYPE svg PUBLIC "-//W3C//DTD SVG 1.1//EN" "http://www.w3.org/Graphics/SVG/1.1/DTD/svg11.dtd">
<svg version="1.1" id="Layer_1" xmlns="http://www.w3.org/2000/svg" xmlns:xlink="http://www.w3.org/1999/xlink" x="0px" y="0px"
	 width="1500px" height="1500px" viewBox="0 0 1500 1500" enable-background="new 0 0 1500 1500" xml:space="preserve">
<path fill="#F1F8F8" d="M1161.496,179.646H338.505c-43.527,0-80.776,15.485-111.747,46.456
	c-30.971,30.971-46.456,68.22-46.456,111.747v823.074c0,43.527,15.485,80.776,46.456,111.747s68.22,46.456,111.747,46.456h823.074
	c43.526,0,80.776-15.485,111.747-46.456s46.456-68.22,46.456-111.747V337.85c0-43.527-15.485-80.776-46.456-111.747
	C1242.355,195.132,1205.022,179.646,1161.496,179.646z M1446.429,337.933v823.075c0,78.516-27.874,145.563-83.622,201.312
	s-122.795,83.621-201.311,83.621H338.505c-78.516,0-145.563-27.873-201.312-83.621s-83.622-122.88-83.622-201.396V337.85
	c0-78.516,27.874-145.564,83.622-201.312C192.941,80.79,259.988,53,338.505,53h823.074c78.516,0,145.563,27.874,201.312,83.622
	S1446.429,259.417,1446.429,337.933z"/>
<g>
</g>
<g>
</g>
<g>
</g>
<g>
</g>
<g>
</g>
<g>
</g>
</svg>
