<?xml version="1.0" encoding="utf-8"?>
<!-- Generator: Adobe Illustrator 16.0.0, SVG Export Plug-In . SVG Version: 6.00 Build 0)  -->
<!DOCTYPE svg PUBLIC "-//W3C//DTD SVG 1.1//EN" "http://www.w3.org/Graphics/SVG/1.1/DTD/svg11.dtd">
<svg version="1.1" id="Layer_1" xmlns="http://www.w3.org/2000/svg" xmlns:xlink="http://www.w3.org/1999/xlink" x="0px" y="0px"
	 width="1500px" height="1500px" viewBox="0 0 1500 1500" enable-background="new 0 0 1500 1500" xml:space="preserve">
<path fill="#F9F2F4" d="M1328.611,1101.981c0,25.948-9.04,47.963-27.204,66.127l-132.255,132.254
	c-18.163,18.164-40.178,27.205-66.127,27.205c-25.948,0-47.963-9.041-66.127-27.205l-285.854-285.854l-285.854,285.854
	c-18.164,18.164-40.18,27.205-66.128,27.205s-47.963-9.041-66.127-27.205l-132.255-132.254
	c-18.164-18.164-27.204-40.179-27.204-66.127c0-25.949,9.04-47.964,27.204-66.128L486.535,750L200.682,464.146
	c-18.164-18.164-27.204-40.179-27.204-66.127s9.04-47.963,27.204-66.127l132.255-132.254c18.164-18.164,40.179-27.204,66.127-27.204
	s47.964,9.04,66.128,27.204l285.854,285.854l285.854-285.854c18.164-18.164,40.179-27.204,66.127-27.204
	c25.949,0,47.964,9.04,66.127,27.204l132.255,132.254c18.164,18.164,27.204,40.179,27.204,66.127s-9.04,47.963-27.204,66.127
	L1015.554,750l285.854,285.854C1319.571,1054.018,1328.611,1076.032,1328.611,1101.981z"/>
<g>
</g>
<g>
</g>
<g>
</g>
<g>
</g>
<g>
</g>
<g>
</g>
</svg>
