<svg xmlns="http://www.w3.org/2000/svg" xmlns:xlink="http://www.w3.org/1999/xlink" width="407" height="336" viewBox="0 0 407 336">
    <defs>
        <path id="godhs6yqha" d="M81 117.962c19.248-.224 81-21.518 81-41.4V.963H0v75.6c0 19.881 61.752 41.622 81 41.399z"/>
        <path id="h9lv9qnmod" d="M1.247 59.384l145.3-59.09c.966-.392 2.048-.392 3.014 0l145.3 59.09c1.023.416 1.515 1.583 1.1 2.606-.204.5-.6.896-1.1 1.1l-145.3 59.088c-.966.393-2.048.393-3.014 0L1.247 63.09c-1.023-.416-1.515-1.583-1.1-2.606.204-.5.6-.896 1.1-1.1z"/>
        <radialGradient id="sejbgclbvb" cx="65.309%" cy="50%" r="48.965%" fx="65.309%" fy="50%" gradientTransform="matrix(0 1 -1.85483 0 1.58 -.153)">
            <stop offset="0%" stop-color="#003630"/>
            <stop offset="100%" stop-color="#00685E"/>
        </radialGradient>
        <circle id="k3pth6qvof" cx="52" cy="52" r="52"/>
    </defs>
    <g fill="none" fill-rule="evenodd">
        <path fill="#FFF" d="M112 306C-3.07 237.867-20 152 19 121s125.534-43.786 253.51-37.925C400.483 88.935 418 172 402 242c-16 70-174.93 132.133-290 64z"/>
        <g>
            <path fill="#FFB500" d="M267.619 73.934v42.215c2.213.727 3.92 2.632 4.32 5.035l2.728 16.406H256.57l2.729-16.406c.4-2.403 2.106-4.308 4.319-5.035V73.934h4z" transform="translate(62 104.037)"/>
            <g transform="translate(62 104.037) translate(67 46)">
                <mask id="jphjpuiyvc" fill="#fff">
                    <use xlink:href="#godhs6yqha"/>
                </mask>
                <use fill="url(#sejbgclbvb)" xlink:href="#godhs6yqha"/>
                <path fill="#000" fill-rule="nonzero" d="M-8.48 7.99l.087 39.604 89.19 37.933.129-.001c1.968-.076 14.491-2.446 37.57-7.112l17.182-3.498c4.872-.997 13.872-.977 27.002.06L160.73 8.368-8.48 7.99z" mask="url(#jphjpuiyvc)" opacity=".2"/>
            </g>
            <g transform="translate(62 104.037) translate(0 .963)">
                <mask id="1ly4i2xa5e" fill="#fff">
                    <use xlink:href="#h9lv9qnmod"/>
                </mask>
                <use fill="#00685E" xlink:href="#h9lv9qnmod"/>
                <path fill="#000" fill-opacity=".2" fill-rule="nonzero" d="M148-68c-32.033 0-58 25.967-58 58s25.967 58 58 58 58-25.967 58-58-25.967-58-58-58z" mask="url(#1ly4i2xa5e)"/>
                <rect width="90" fill="#000" fill-opacity=".6" style="mix-blend-mode:overlay" height="8" x="102.968" y="58.037" mask="url(#1ly4i2xa5e)" rx="4"/>
            </g>
        </g>
        <g>
            <g transform="translate(157.127) translate(.873 43)">
                <mask id="xzf779hw3g" fill="#fff">
                    <use xlink:href="#k3pth6qvof"/>
                </mask>
                <use fill="#FFB500" xlink:href="#k3pth6qvof"/>
                <path fill="#FFC300" fill-rule="nonzero" d="M113 99c2.853 0 5.028.45 9.365 1.76l2.246.684.866.255c3.2.927 5.055 1.274 7.255 1.3L133 103v2c-2.853 0-5.028-.45-9.365-1.76l-2.246-.684c-3.884-1.16-5.874-1.556-8.389-1.556-2.191 0-4.182.374-6.965 1.21l-1.17.363-1.185.38c-4.476 1.432-7.01 2.006-10.31 2.045L93 105c-2.853 0-5.028-.45-9.365-1.76l-2.246-.684C77.505 101.396 75.515 101 73 101c-2.191 0-4.182.374-6.965 1.21l-1.17.363-1.185.38c-4.476 1.432-7.01 2.006-10.31 2.045L53 105c-2.853 0-5.028-.45-9.365-1.76l-2.246-.684C37.505 101.396 35.515 101 33 101c-2.191 0-4.182.374-6.965 1.21l-1.17.363-1.185.38c-4.476 1.432-7.01 2.006-10.31 2.045L13 105c-2.853 0-5.028-.45-9.365-1.76l-2.246-.684C-2.495 101.396-4.485 101-7 101c-2.191 0-4.182.374-6.965 1.21l-1.17.363-1.185.38c-4.476 1.432-7.01 2.006-10.31 2.045L-27 105v-2c3.109 0 5.44-.489 9.6-1.803l2.344-.744C-11.832 99.454-9.56 99-7 99c2.853 0 5.028.45 9.365 1.76l2.246.684.866.255c3.2.927 5.055 1.274 7.255 1.3L13 103c3.109 0 5.44-.489 9.6-1.803l2.344-.744C28.168 99.454 30.44 99 33 99c2.853 0 5.028.45 9.365 1.76l2.246.684.866.255c3.2.927 5.055 1.274 7.255 1.3L53 103c3.109 0 5.44-.489 9.6-1.803l2.344-.744C68.168 99.454 70.44 99 73 99c2.853 0 5.028.45 9.365 1.76l2.246.684.866.255c3.2.927 5.055 1.274 7.255 1.3L93 103c3.109 0 5.44-.489 9.6-1.803l2.344-.744C108.168 99.454 110.44 99 113 99zm-4-8c2.853 0 5.028.45 9.365 1.76l2.246.684.866.255c3.2.927 5.055 1.274 7.255 1.3L129 95v2c-2.853 0-5.028-.45-9.365-1.76l-2.246-.684C113.505 93.396 111.515 93 109 93c-2.191 0-4.182.374-6.965 1.21l-1.17.363-1.185.38c-4.476 1.432-7.01 2.006-10.31 2.045L89 97c-2.853 0-5.028-.45-9.365-1.76l-2.246-.684C73.505 93.396 71.515 93 69 93c-2.191 0-4.182.374-6.965 1.21l-1.17.363-1.185.38c-4.476 1.432-7.01 2.006-10.31 2.045L49 97c-2.853 0-5.028-.45-9.365-1.76l-2.246-.684C33.505 93.396 31.515 93 29 93c-2.191 0-4.182.374-6.965 1.21l-1.17.363-1.185.38c-4.476 1.432-7.01 2.006-10.31 2.045L9 97c-2.853 0-5.028-.45-9.365-1.76l-2.246-.684C-6.495 93.396-8.485 93-11 93c-2.191 0-4.182.374-6.965 1.21l-1.17.363-1.185.38c-4.476 1.432-7.01 2.006-10.31 2.045L-31 97v-2c3.109 0 5.44-.489 9.6-1.803l2.344-.744C-15.832 91.454-13.56 91-11 91c2.853 0 5.028.45 9.365 1.76l2.246.684.866.255c3.2.927 5.055 1.274 7.255 1.3L9 95c3.109 0 5.44-.489 9.6-1.803l2.344-.744C24.168 91.454 26.44 91 29 91c2.853 0 5.028.45 9.365 1.76l2.246.684.866.255c3.2.927 5.055 1.274 7.255 1.3L49 95c3.109 0 5.44-.489 9.6-1.803l2.344-.744C64.168 91.454 66.44 91 69 91c2.853 0 5.028.45 9.365 1.76l2.246.684.866.255c3.2.927 5.055 1.274 7.255 1.3L89 95c3.109 0 5.44-.489 9.6-1.803l2.344-.744C104.168 91.454 106.44 91 109 91zm-4-8c2.853 0 5.028.45 9.365 1.76l2.246.684.866.255c3.2.927 5.055 1.274 7.255 1.3L125 87v2c-2.853 0-5.028-.45-9.365-1.76l-2.246-.684C109.505 85.396 107.515 85 105 85c-2.191 0-4.182.374-6.965 1.21l-1.17.363-1.185.38c-4.476 1.432-7.01 2.006-10.31 2.045L85 89c-2.853 0-5.028-.45-9.365-1.76l-2.246-.684C69.505 85.396 67.515 85 65 85c-2.191 0-4.182.374-6.965 1.21l-1.17.363-1.185.38c-4.476 1.432-7.01 2.006-10.31 2.045L45 89c-2.853 0-5.028-.45-9.365-1.76l-2.246-.684C29.505 85.396 27.515 85 25 85c-2.191 0-4.182.374-6.965 1.21l-1.17.363-1.185.38c-4.476 1.432-7.01 2.006-10.31 2.045L5 89c-2.853 0-5.028-.45-9.365-1.76l-2.246-.684C-10.495 85.396-12.485 85-15 85c-2.191 0-4.182.374-6.965 1.21l-1.17.363-1.185.38c-4.476 1.432-7.01 2.006-10.31 2.045L-35 89v-2c3.109 0 5.44-.489 9.6-1.803l2.344-.744C-19.832 83.454-17.56 83-15 83c2.853 0 5.028.45 9.365 1.76l2.246.684.866.255c3.2.927 5.055 1.274 7.255 1.3L5 87c3.109 0 5.44-.489 9.6-1.803l2.344-.744C20.168 83.454 22.44 83 25 83c2.853 0 5.028.45 9.365 1.76l2.246.684.866.255c3.2.927 5.055 1.274 7.255 1.3L45 87c3.109 0 5.44-.489 9.6-1.803l2.344-.744C60.168 83.454 62.44 83 65 83c2.853 0 5.028.45 9.365 1.76l2.246.684.866.255c3.2.927 5.055 1.274 7.255 1.3L85 87c3.109 0 5.44-.489 9.6-1.803l2.344-.744C100.168 83.454 102.44 83 105 83zm-4-8c2.853 0 5.028.45 9.365 1.76l2.246.684.866.255c3.2.927 5.055 1.274 7.255 1.3L121 79v2c-2.853 0-5.028-.45-9.365-1.76l-2.246-.684C105.505 77.396 103.515 77 101 77c-2.191 0-4.182.374-6.965 1.21l-1.17.363-1.185.38c-4.476 1.432-7.01 2.006-10.31 2.045L81 81c-2.853 0-5.028-.45-9.365-1.76l-2.246-.684C65.505 77.396 63.515 77 61 77c-2.191 0-4.182.374-6.965 1.21l-1.17.363-1.185.38c-4.476 1.432-7.01 2.006-10.31 2.045L41 81c-2.853 0-5.028-.45-9.365-1.76l-2.246-.684C25.505 77.396 23.515 77 21 77c-2.191 0-4.182.374-6.965 1.21l-1.17.363-1.185.38c-4.476 1.432-7.01 2.006-10.31 2.045L1 81c-2.853 0-5.028-.45-9.365-1.76l-2.246-.684C-14.495 77.396-16.485 77-19 77c-2.191 0-4.182.374-6.965 1.21l-1.17.363-1.185.38c-4.476 1.432-7.01 2.006-10.31 2.045L-39 81v-2c3.109 0 5.44-.489 9.6-1.803l2.344-.744C-23.832 75.454-21.56 75-19 75c2.853 0 5.028.45 9.365 1.76l2.246.684.866.255c3.2.927 5.055 1.274 7.255 1.3L1 79c3.109 0 5.44-.489 9.6-1.803l2.344-.744C16.168 75.454 18.44 75 21 75c2.853 0 5.028.45 9.365 1.76l2.246.684.866.255c3.2.927 5.055 1.274 7.255 1.3L41 79c3.109 0 5.44-.489 9.6-1.803l2.344-.744C56.168 75.454 58.44 75 61 75c2.853 0 5.028.45 9.365 1.76l2.246.684.866.255c3.2.927 5.055 1.274 7.255 1.3L81 79c3.109 0 5.44-.489 9.6-1.803l2.344-.744C96.168 75.454 98.44 75 101 75zm-4-8c2.853 0 5.028.45 9.365 1.76l2.246.684.866.255c3.2.927 5.055 1.274 7.255 1.3L117 71v2c-2.853 0-5.028-.45-9.365-1.76l-2.246-.684C101.505 69.396 99.515 69 97 69c-2.191 0-4.182.374-6.965 1.21l-1.17.363-1.185.38c-4.476 1.432-7.01 2.006-10.31 2.045L77 73c-2.853 0-5.028-.45-9.365-1.76l-2.246-.684C61.505 69.396 59.515 69 57 69c-2.191 0-4.182.374-6.965 1.21l-1.17.363-1.185.38c-4.476 1.432-7.01 2.006-10.31 2.045L37 73c-2.853 0-5.028-.45-9.365-1.76l-2.246-.684C21.505 69.396 19.515 69 17 69c-2.191 0-4.182.374-6.965 1.21l-1.17.363-1.185.38C3.204 72.384.67 72.958-2.63 72.997L-3 73c-2.853 0-5.028-.45-9.365-1.76l-2.246-.684C-18.495 69.396-20.485 69-23 69c-2.191 0-4.182.374-6.965 1.21l-1.17.363-1.185.38c-4.476 1.432-7.01 2.006-10.31 2.045L-43 73v-2c3.109 0 5.44-.489 9.6-1.803l2.344-.744C-27.832 67.454-25.56 67-23 67c2.853 0 5.028.45 9.365 1.76l2.246.684.866.255c3.2.927 5.055 1.274 7.255 1.3L-3 71c3.109 0 5.44-.489 9.6-1.803l2.344-.744C12.168 67.454 14.44 67 17 67c2.853 0 5.028.45 9.365 1.76l2.246.684.866.255c3.2.927 5.055 1.274 7.255 1.3L37 71c3.109 0 5.44-.489 9.6-1.803l2.344-.744C52.168 67.454 54.44 67 57 67c2.853 0 5.028.45 9.365 1.76l2.246.684.866.255c3.2.927 5.055 1.274 7.255 1.3L77 71c3.109 0 5.44-.489 9.6-1.803l2.344-.744C92.168 67.454 94.44 67 97 67zm-4-8c2.853 0 5.028.45 9.365 1.76l2.246.684.866.255c3.2.927 5.055 1.274 7.255 1.3L113 63v2c-2.853 0-5.028-.45-9.365-1.76l-2.246-.684C97.505 61.396 95.515 61 93 61c-2.191 0-4.182.374-6.965 1.21l-1.17.363-1.185.38c-4.476 1.432-7.01 2.006-10.31 2.045L73 65c-2.853 0-5.028-.45-9.365-1.76l-2.246-.684C57.505 61.396 55.515 61 53 61c-2.191 0-4.182.374-6.965 1.21l-1.17.363-1.185.38c-4.476 1.432-7.01 2.006-10.31 2.045L33 65c-2.853 0-5.028-.45-9.365-1.76l-2.246-.684C17.505 61.396 15.515 61 13 61c-2.191 0-4.182.374-6.965 1.21l-1.17.363-1.185.38c-4.476 1.432-7.01 2.006-10.31 2.045L-7 65c-2.853 0-5.028-.45-9.365-1.76l-2.246-.684C-22.495 61.396-24.485 61-27 61c-2.191 0-4.182.374-6.965 1.21l-1.17.363-1.185.38c-4.476 1.432-7.01 2.006-10.31 2.045L-47 65v-2c3.109 0 5.44-.489 9.6-1.803l2.344-.744C-31.832 59.454-29.56 59-27 59c2.853 0 5.028.45 9.365 1.76l2.246.684.866.255c3.2.927 5.055 1.274 7.255 1.3L-7 63c3.109 0 5.44-.489 9.6-1.803l2.344-.744C8.168 59.454 10.44 59 13 59c2.853 0 5.028.45 9.365 1.76l2.246.684.866.255c3.2.927 5.055 1.274 7.255 1.3L33 63c3.109 0 5.44-.489 9.6-1.803l2.344-.744C48.168 59.454 50.44 59 53 59c2.853 0 5.028.45 9.365 1.76l2.246.684.866.255c3.2.927 5.055 1.274 7.255 1.3L73 63c3.109 0 5.44-.489 9.6-1.803l2.344-.744C88.168 59.454 90.44 59 93 59zm-4-8c2.853 0 5.028.45 9.365 1.76l2.246.684.866.255c3.2.927 5.055 1.274 7.255 1.3L109 55v2c-2.853 0-5.028-.45-9.365-1.76l-2.246-.684C93.505 53.396 91.515 53 89 53c-2.191 0-4.182.374-6.965 1.21l-1.17.363-1.185.38c-4.476 1.432-7.01 2.006-10.31 2.045L69 57c-2.853 0-5.028-.45-9.365-1.76l-2.246-.684C53.505 53.396 51.515 53 49 53c-2.191 0-4.182.374-6.965 1.21l-1.17.363-1.185.38c-4.476 1.432-7.01 2.006-10.31 2.045L29 57c-2.853 0-5.028-.45-9.365-1.76l-2.246-.684C13.505 53.396 11.515 53 9 53c-2.191 0-4.182.374-6.965 1.21l-2.355.742c-4.476 1.433-7.01 2.007-10.31 2.046L-11 57c-2.853 0-5.028-.45-9.365-1.76l-2.246-.684C-26.495 53.396-28.485 53-31 53c-2.191 0-4.182.374-6.965 1.21l-1.17.363-1.185.38c-4.476 1.432-7.01 2.006-10.31 2.045L-51 57v-2c3.109 0 5.44-.489 9.6-1.803l2.344-.744C-35.832 51.454-33.56 51-31 51c2.853 0 5.028.45 9.365 1.76l2.246.684.866.255c3.2.927 5.055 1.274 7.255 1.3L-11 55c3.109 0 5.44-.489 9.6-1.803l2.344-.744C4.168 51.454 6.44 51 9 51c2.853 0 5.028.45 9.365 1.76l2.246.684.866.255c3.2.927 5.055 1.274 7.255 1.3L29 55c3.109 0 5.44-.489 9.6-1.803l2.344-.744C44.168 51.454 46.44 51 49 51c2.853 0 5.028.45 9.365 1.76l2.246.684.866.255c3.2.927 5.055 1.274 7.255 1.3L69 55c3.109 0 5.44-.489 9.6-1.803l2.344-.744C84.168 51.454 86.44 51 89 51zm-4-8c2.853 0 5.028.45 9.365 1.76l2.246.684.866.255c3.2.927 5.055 1.274 7.255 1.3L105 47v2c-2.853 0-5.028-.45-9.365-1.76l-2.246-.684C89.505 45.396 87.515 45 85 45c-2.191 0-4.182.374-6.965 1.21l-1.17.363-1.185.38c-4.476 1.432-7.01 2.006-10.31 2.045L65 49c-2.853 0-5.028-.45-9.365-1.76l-2.246-.684C49.505 45.396 47.515 45 45 45c-2.191 0-4.182.374-6.965 1.21l-1.17.363-1.185.38c-4.476 1.432-7.01 2.006-10.31 2.045L25 49c-2.853 0-5.028-.45-9.365-1.76l-2.246-.684C9.505 45.396 7.515 45 5 45c-2.191 0-4.182.374-6.965 1.21l-1.17.363-1.185.38c-4.476 1.432-7.01 2.006-10.31 2.045L-15 49c-2.853 0-5.028-.45-9.365-1.76l-2.246-.684C-30.495 45.396-32.485 45-35 45c-2.191 0-4.182.374-6.965 1.21l-1.17.363-1.185.38c-4.476 1.432-7.01 2.006-10.31 2.045L-55 49v-2c3.109 0 5.44-.489 9.6-1.803l2.344-.744C-39.832 43.454-37.56 43-35 43c2.853 0 5.028.45 9.365 1.76l2.246.684.866.255c3.2.927 5.055 1.274 7.255 1.3L-15 47c3.109 0 5.44-.489 9.6-1.803l2.344-.744C.168 43.454 2.44 43 5 43c2.853 0 5.028.45 9.365 1.76l2.246.684.866.255c3.2.927 5.055 1.274 7.255 1.3L25 47c3.109 0 5.44-.489 9.6-1.803l2.344-.744C40.168 43.454 42.44 43 45 43c2.853 0 5.028.45 9.365 1.76l2.246.684.866.255c3.2.927 5.055 1.274 7.255 1.3L65 47c3.109 0 5.44-.489 9.6-1.803l2.344-.744C80.168 43.454 82.44 43 85 43zm36-8c2.853 0 5.028.45 9.365 1.76l2.246.684.866.255c3.2.927 5.055 1.274 7.255 1.3L141 39v2c-2.853 0-5.028-.45-9.365-1.76l-2.246-.684C125.505 37.396 123.515 37 121 37c-2.191 0-4.182.374-6.965 1.21l-1.17.363-1.185.38c-4.476 1.432-7.01 2.006-10.31 2.045L101 41c-2.853 0-5.028-.45-9.365-1.76l-2.246-.684C85.505 37.396 83.515 37 81 37c-2.191 0-4.182.374-6.965 1.21l-1.17.363-1.185.38c-4.476 1.432-7.01 2.006-10.31 2.045L61 41c-2.853 0-5.028-.45-9.365-1.76l-2.246-.684C45.505 37.396 43.515 37 41 37c-2.191 0-4.182.374-6.965 1.21l-1.17.363-1.185.38c-4.476 1.432-7.01 2.006-10.31 2.045L21 41c-2.853 0-5.028-.45-9.365-1.76l-2.246-.684C5.505 37.396 3.515 37 1 37c-2.191 0-4.182.374-6.965 1.21l-1.17.363-1.185.38c-4.476 1.432-7.01 2.006-10.31 2.045L-19 41c-2.853 0-5.028-.45-9.365-1.76l-2.246-.684C-34.495 37.396-36.485 37-39 37c-2.191 0-4.182.374-6.965 1.21l-1.17.363-1.185.38c-4.476 1.432-7.01 2.006-10.31 2.045L-59 41v-2c3.109 0 5.44-.489 9.6-1.803l2.344-.744C-43.832 35.454-41.56 35-39 35c2.853 0 5.028.45 9.365 1.76l2.246.684.866.255c3.2.927 5.055 1.274 7.255 1.3L-19 39c3.109 0 5.44-.489 9.6-1.803l2.344-.744C-3.832 35.454-1.56 35 1 35c2.853 0 5.028.45 9.365 1.76l2.246.684.866.255c3.2.927 5.055 1.274 7.255 1.3L21 39c3.109 0 5.44-.489 9.6-1.803l2.344-.744C36.168 35.454 38.44 35 41 35c2.853 0 5.028.45 9.365 1.76l2.246.684.866.255c3.2.927 5.055 1.274 7.255 1.3L61 39c3.109 0 5.44-.489 9.6-1.803l2.344-.744C76.168 35.454 78.44 35 81 35c2.853 0 5.028.45 9.365 1.76l2.246.684.866.255c3.2.927 5.055 1.274 7.255 1.3L101 39c3.109 0 5.44-.489 9.6-1.803l2.344-.744C116.168 35.454 118.44 35 121 35zm-4-8c2.853 0 5.028.45 9.365 1.76l2.246.684.866.255c3.2.927 5.055 1.274 7.255 1.3L137 31v2c-2.853 0-5.028-.45-9.365-1.76l-2.246-.684C121.505 29.396 119.515 29 117 29c-2.191 0-4.182.374-6.965 1.21l-1.17.363-1.185.38c-4.476 1.432-7.01 2.006-10.31 2.045L97 33c-2.853 0-5.028-.45-9.365-1.76l-2.246-.684C81.505 29.396 79.515 29 77 29c-2.191 0-4.182.374-6.965 1.21l-1.17.363-1.185.38c-4.476 1.432-7.01 2.006-10.31 2.045L57 33c-2.853 0-5.028-.45-9.365-1.76l-2.246-.684C41.505 29.396 39.515 29 37 29c-2.191 0-4.182.374-6.965 1.21l-1.17.363-1.185.38c-4.476 1.432-7.01 2.006-10.31 2.045L17 33c-2.853 0-5.028-.45-9.365-1.76l-2.246-.684C1.505 29.396-.485 29-3 29c-2.191 0-4.182.374-6.965 1.21l-1.17.363-1.185.38c-4.476 1.432-7.01 2.006-10.31 2.045L-23 33c-2.853 0-5.028-.45-9.365-1.76l-2.246-.684C-38.495 29.396-40.485 29-43 29c-2.191 0-4.182.374-6.965 1.21l-1.17.363-1.185.38c-4.476 1.432-7.01 2.006-10.31 2.045L-63 33v-2c3.109 0 5.44-.489 9.6-1.803l2.344-.744C-47.832 27.454-45.56 27-43 27c2.853 0 5.028.45 9.365 1.76l2.246.684.866.255c3.2.927 5.055 1.274 7.255 1.3L-23 31c3.109 0 5.44-.489 9.6-1.803l2.344-.744C-7.832 27.454-5.56 27-3 27c2.853 0 5.028.45 9.365 1.76l2.246.684.866.255c3.2.927 5.055 1.274 7.255 1.3L17 31c3.109 0 5.44-.489 9.6-1.803l2.344-.744C32.168 27.454 34.44 27 37 27c2.853 0 5.028.45 9.365 1.76l2.246.684.866.255c3.2.927 5.055 1.274 7.255 1.3L57 31c3.109 0 5.44-.489 9.6-1.803l2.344-.744C72.168 27.454 74.44 27 77 27c2.853 0 5.028.45 9.365 1.76l2.246.684.866.255c3.2.927 5.055 1.274 7.255 1.3L97 31c3.109 0 5.44-.489 9.6-1.803l2.344-.744C112.168 27.454 114.44 27 117 27zm-4-8c2.853 0 5.028.45 9.365 1.76l2.246.684.866.255c3.2.927 5.055 1.274 7.255 1.3L133 23v2c-2.853 0-5.028-.45-9.365-1.76l-2.246-.684C117.505 21.396 115.515 21 113 21c-2.191 0-4.182.374-6.965 1.21l-1.17.363-1.185.38c-4.476 1.432-7.01 2.006-10.31 2.045L93 25c-2.853 0-5.028-.45-9.365-1.76l-2.246-.684C77.505 21.396 75.515 21 73 21c-2.191 0-4.182.374-6.965 1.21l-1.17.363-1.185.38c-4.476 1.432-7.01 2.006-10.31 2.045L53 25c-2.853 0-5.028-.45-9.365-1.76l-2.246-.684C37.505 21.396 35.515 21 33 21c-2.191 0-4.182.374-6.965 1.21l-1.17.363-1.185.38c-4.476 1.432-7.01 2.006-10.31 2.045L13 25c-2.853 0-5.028-.45-9.365-1.76l-2.246-.684C-2.495 21.396-4.485 21-7 21c-2.191 0-4.182.374-6.965 1.21l-1.17.363-1.185.38c-4.476 1.432-7.01 2.006-10.31 2.045L-27 25c-2.853 0-5.028-.45-9.365-1.76l-2.246-.684C-42.495 21.396-44.485 21-47 21c-2.191 0-4.182.374-6.965 1.21l-1.17.363-1.185.38c-4.476 1.432-7.01 2.006-10.31 2.045L-67 25v-2c3.109 0 5.44-.489 9.6-1.803l2.344-.744C-51.832 19.454-49.56 19-47 19c2.853 0 5.028.45 9.365 1.76l2.246.684.866.255c3.2.927 5.055 1.274 7.255 1.3L-27 23c3.109 0 5.44-.489 9.6-1.803l2.344-.744C-11.832 19.454-9.56 19-7 19c2.853 0 5.028.45 9.365 1.76l2.246.684.866.255c3.2.927 5.055 1.274 7.255 1.3L13 23c3.109 0 5.44-.489 9.6-1.803l2.344-.744C28.168 19.454 30.44 19 33 19c2.853 0 5.028.45 9.365 1.76l2.246.684.866.255c3.2.927 5.055 1.274 7.255 1.3L53 23c3.109 0 5.44-.489 9.6-1.803l2.344-.744C68.168 19.454 70.44 19 73 19c2.853 0 5.028.45 9.365 1.76l2.246.684.866.255c3.2.927 5.055 1.274 7.255 1.3L93 23c3.109 0 5.44-.489 9.6-1.803l2.344-.744C108.168 19.454 110.44 19 113 19zm-4-8c2.853 0 5.028.45 9.365 1.76l2.246.684.866.255c3.2.927 5.055 1.274 7.255 1.3L129 15v2c-2.853 0-5.028-.45-9.365-1.76l-2.246-.684C113.505 13.396 111.515 13 109 13c-2.191 0-4.182.374-6.965 1.21l-1.17.363-1.185.38c-4.476 1.432-7.01 2.006-10.31 2.045L89 17c-2.853 0-5.028-.45-9.365-1.76l-2.246-.684C73.505 13.396 71.515 13 69 13c-2.191 0-4.182.374-6.965 1.21l-1.17.363-1.185.38c-4.476 1.432-7.01 2.006-10.31 2.045L49 17c-2.853 0-5.028-.45-9.365-1.76l-2.246-.684C33.505 13.396 31.515 13 29 13c-2.191 0-4.182.374-6.965 1.21l-1.17.363-1.185.38c-4.476 1.432-7.01 2.006-10.31 2.045L9 17c-2.853 0-5.028-.45-9.365-1.76l-2.246-.684C-6.495 13.396-8.485 13-11 13c-2.191 0-4.182.374-6.965 1.21l-1.17.363-1.185.38c-4.476 1.432-7.01 2.006-10.31 2.045L-31 17c-2.853 0-5.028-.45-9.365-1.76l-2.246-.684C-46.495 13.396-48.485 13-51 13c-2.191 0-4.182.374-6.965 1.21l-1.17.363-1.185.38c-4.476 1.432-7.01 2.006-10.31 2.045L-71 17v-2c3.109 0 5.44-.489 9.6-1.803l2.344-.744C-55.832 11.454-53.56 11-51 11c2.853 0 5.028.45 9.365 1.76l2.246.684.866.255c3.2.927 5.055 1.274 7.255 1.3L-31 15c3.109 0 5.44-.489 9.6-1.803l2.344-.744C-15.832 11.454-13.56 11-11 11c2.853 0 5.028.45 9.365 1.76l2.246.684.866.255c3.2.927 5.055 1.274 7.255 1.3L9 15c3.109 0 5.44-.489 9.6-1.803l2.344-.744C24.168 11.454 26.44 11 29 11c2.853 0 5.028.45 9.365 1.76l2.246.684.866.255c3.2.927 5.055 1.274 7.255 1.3L49 15c3.109 0 5.44-.489 9.6-1.803l2.344-.744C64.168 11.454 66.44 11 69 11c2.853 0 5.028.45 9.365 1.76l2.246.684.866.255c3.2.927 5.055 1.274 7.255 1.3L89 15c3.109 0 5.44-.489 9.6-1.803l2.344-.744C104.168 11.454 106.44 11 109 11zM-44.365 7.24l-2.246-.684C-50.495 5.396-52.485 5-55 5c-2.191 0-4.182.374-6.965 1.21l-1.17.363-1.185.38c-4.476 1.432-7.01 2.006-10.31 2.045L-75 9V7c3.109 0 5.44-.489 9.6-1.803l2.344-.744C-59.832 3.454-57.56 3-55 3c2.853 0 5.028.45 9.365 1.76l2.246.684.866.255c3.2.927 5.055 1.274 7.255 1.3L-35 7c3.109 0 5.44-.489 9.6-1.803l2.344-.744C-19.832 3.454-17.56 3-15 3c2.853 0 5.028.45 9.365 1.76l2.246.684.866.255c3.2.927 5.055 1.274 7.255 1.3L5 7c3.109 0 5.44-.489 9.6-1.803l2.344-.744C20.168 3.454 22.44 3 25 3c2.853 0 5.028.45 9.365 1.76l2.246.684.866.255c3.2.927 5.055 1.274 7.255 1.3L45 7c3.109 0 5.44-.489 9.6-1.803l2.344-.744C60.168 3.454 62.44 3 65 3c2.853 0 5.028.45 9.365 1.76l2.246.684.866.255c3.2.927 5.055 1.274 7.255 1.3L85 7c3.109 0 5.44-.489 9.6-1.803l2.344-.744C100.168 3.454 102.44 3 105 3c2.853 0 5.028.45 9.365 1.76l2.246.684.866.255c3.2.927 5.055 1.274 7.255 1.3L125 7v2c-2.853 0-5.028-.45-9.365-1.76l-2.246-.684C109.505 5.396 107.515 5 105 5c-2.191 0-4.182.374-6.965 1.21l-1.17.363-1.185.38c-4.476 1.432-7.01 2.006-10.31 2.045L85 9c-2.853 0-5.028-.45-9.365-1.76l-2.246-.684C69.505 5.396 67.515 5 65 5c-2.191 0-4.182.374-6.965 1.21l-1.17.363-1.185.38c-4.476 1.432-7.01 2.006-10.31 2.045L45 9c-2.853 0-5.028-.45-9.365-1.76l-2.246-.684C29.505 5.396 27.515 5 25 5c-2.191 0-4.182.374-6.965 1.21l-1.17.363-1.185.38C11.204 8.384 8.67 8.958 5.37 8.997L5 9C2.147 9-.028 8.55-4.365 7.24l-2.246-.684C-10.495 5.396-12.485 5-15 5c-2.191 0-4.182.374-6.965 1.21l-1.17.363-1.185.38c-4.476 1.432-7.01 2.006-10.31 2.045L-35 9c-2.853 0-5.028-.45-9.365-1.76zM101-5c2.853 0 5.028.45 9.365 1.76l2.246.684.866.255c3.2.927 5.055 1.274 7.255 1.3L121-1v2c-2.853 0-5.028-.45-9.365-1.76l-2.246-.684C105.505-2.604 103.515-3 101-3c-2.191 0-4.182.374-6.965 1.21l-1.17.363-1.185.38C87.204.384 84.67.958 81.37.997L81 1c-2.853 0-5.028-.45-9.365-1.76l-2.246-.684C65.505-2.604 63.515-3 61-3c-2.191 0-4.182.374-6.965 1.21l-1.17.363-1.185.38C47.204.384 44.67.958 41.37.997L41 1c-2.853 0-5.028-.45-9.365-1.76l-2.246-.684C25.505-2.604 23.515-3 21-3c-2.191 0-4.182.374-6.965 1.21l-1.17.363-1.185.38C7.204.384 4.67.958 1.37.997L1 1v-2c3.109 0 5.44-.489 9.6-1.803l2.344-.744C16.168-4.546 18.44-5 21-5c2.853 0 5.028.45 9.365 1.76l2.246.684.866.255c3.2.927 5.055 1.274 7.255 1.3L41-1c3.109 0 5.44-.489 9.6-1.803l2.344-.744C56.168-4.546 58.44-5 61-5c2.853 0 5.028.45 9.365 1.76l2.246.684.866.255c3.2.927 5.055 1.274 7.255 1.3L81-1c3.109 0 5.44-.489 9.6-1.803l2.344-.744C96.168-4.546 98.44-5 101-5z" mask="url(#xzf779hw3g)"/>
            </g>
            <path fill="#FFB500" d="M16.873 10.88c1.115 0 2.028.886 2.062 2l.844 27.002c.05 1.605-1.21 2.947-2.815 2.997l-.091.002c-1.606 0-2.908-1.302-2.908-2.908 0-.03 0-.06.002-.09l.844-27.003c.034-1.114.947-2 2.062-2zM52.873 0c1.115 0 2.028.885 2.062 1.999l.844 27.002c.05 1.606-1.21 2.947-2.815 2.998l-.091.001c-1.606 0-2.908-1.302-2.908-2.908 0-.03 0-.06.002-.09l.844-27.003C50.845.885 51.758 0 52.873 0zM88.873 10.88c1.115 0 2.028.886 2.062 2l.844 27.002c.05 1.605-1.21 2.947-2.815 2.997l-.091.002c-1.606 0-2.908-1.302-2.908-2.908 0-.03 0-.06.002-.09l.844-27.003c.034-1.114.947-2 2.062-2z" transform="translate(157.127)"/>
            <path fill="#D43C00" fill-opacity=".1" fill-rule="nonzero" d="M60.142 65.701H45.081v6.48l-.177.053c-7.217 2.192-11.781 7.677-11.781 14.816l.005.382c.1 4.171 1.85 7.483 4.911 9.825l.201.15-7.669 7.495 2.315 2.834.274.328c2.856 3.364 6.806 5.998 11.551 7.382l.37.103v7.72h15.061l-.001-7.739.297-.085c7.42-2.217 12.118-7.615 12.118-14.85 0-4.842-2.146-8.637-5.941-11.198l-.37-.243-.216-.134 7.151-7.153-2.473-2.817-.282-.314c-2.48-2.702-5.923-4.928-9.865-6.231l-.419-.135.001-6.669z" transform="translate(157.127)"/>
            <path fill="#FFF" fill-rule="nonzero" d="M56.142 119.269v-6.974c7.687-1.095 12.414-5.476 12.414-11.7 0-7.436-6.72-9.914-13.268-11.009-5.068-.865-8.94-1.037-8.94-4.035 0-2.824 2.904-3.976 6.207-3.976 4.783 0 7.744 2.478 10.25 5.014l4.896-4.9c-2.277-2.593-6.32-5.302-11.559-6.166V69.7h-7.061v5.706c-7.516 1.038-11.958 5.591-11.958 11.643 0 7.205 6.435 9.28 12.527 10.375 5.41.922 9.738 1.383 9.738 4.668 0 2.997-3.303 4.035-6.606 4.035-5.58 0-8.94-2.71-11.844-5.764l-4.954 4.841c2.449 2.997 6.776 6.225 13.097 7.09v6.974h7.061z" transform="translate(157.127)"/>
        </g>
    </g>
</svg>
