<?xml version="1.0" encoding="utf-8"?>
<!-- Generator: Adobe Illustrator 16.0.0, SVG Export Plug-In . SVG Version: 6.00 Build 0)  -->
<!DOCTYPE svg PUBLIC "-//W3C//DTD SVG 1.1//EN" "http://www.w3.org/Graphics/SVG/1.1/DTD/svg11.dtd">
<svg version="1.1" id="Layer_1" xmlns="http://www.w3.org/2000/svg" xmlns:xlink="http://www.w3.org/1999/xlink" x="0px" y="0px"
	 width="231.414px" height="137.303px" viewBox="-115.207 331.849 231.414 137.303"
	 enable-background="new -115.207 331.849 231.414 137.303" xml:space="preserve">
<path fill="#006C67" d="M-113.592,349.249c1.231-5.758,9.477-13.857,21.144-11.187c3.011,0.549,4.204,0.618,6.464-0.209
	c0.891-0.341,1.301,0.48,0.619,2.879c-0.682,2.399-0.069,6.667,0.069,7.766s-2.487,3.561-2.626,1.23
	c-0.14-1.641-0.455-7.076-9.11-7.765c-6.048-0.55-9.975,1.806-10.113,7.216c-0.146,5.776,6.698,6.837,12.923,8.63
	c11.736,3.378,11.465,10.297,11.465,12.513c0,3.517-3.207,11.257-14.293,14.224c-3.63,0.89-11.162-0.322-13.106-0.682
	c-1.439,0.341-2.739,1.028-3.358,1.028s-0.853-0.744-0.479-4.04c0.618-5.436-1.099-7.715,0.208-9.154
	c1.301-1.439,1.919-1.83,2.26,1.118c0.341,1.369,1.895,7.468,11.964,7.721c3.838,0.157,9.931-1.073,9.729-9.388
	c-0.133-5.479-6.647-6.85-9.268-7.607C-101.445,362.172-115.101,361.332-113.592,349.249z"/>
<path fill="#006C67" d="M-35.498,352.179c-7.657,0.221-8.1,7.442-8.169,13.863c-0.069,5.985,2.702,14.085,9.849,13.939
	c7.152-0.146,9.634-5.688,8.681-15.612C-26.085,354.438-31.413,352.033-35.498,352.179z M-49.873,370.127
	c-0.221-8.321,1.534-13.498,7.664-18.17c6.13-4.671,12.33-6.786,19.482,0c2.771,2.702,9.205,18.207-3.648,28.384
	C-36.521,388.952-49.146,383.043-49.873,370.127z"/>
<path fill="#006C67" d="M-18.193,351.036c1.041-1.301,3.27-0.133,5.239-0.865c0.701-0.259,2.374-0.802,3.511-2.096
	c0.202-0.228,1.578-0.133,1.515,0.726c0,0-0.498,2.646-0.461,4.583c0.038,0.802,0.146,0.765,0.84,0.076
	c0.694-0.694,3.094-3.22,4.16-4.488c0.985-1.168,4.375-2.115,7.153,0.145c0.656,0.732,0.328,0.985-0.038,1.718
	c-0.436,1.243-1.97,2.702-2.589,3.901c-0.511,0.991-1.414-0.12-1.679-0.512c-0.676-1.004-3.194-2.222-5.031,0.291
	c-1.604,2.114-2.917,3.062-2.848,11.604c0.076,8.535-0.512,12.55,0.947,14.084c0.946,1.023,2.241,1.439,4.45,1.389
	c0.512-0.019,2.026-0.019,0.985,1.352c-0.947,1.206-1.642,0.858-2.374,0.878c-0.732,0.019-4.924-0.437-7.664-0.329
	c-2.733,0.107-4.811,0.373-5.985,0.436c-0.694,0.038-0.789-0.454-0.265-1.237c0.518-0.782,0.656-0.864,1.729-1.123
	c0.468-0.127,1.749-0.847,1.964-3.112c0.221-2.261,0.221-21.598,0.075-22.545c-0.145-0.946-0.587-3.39-3.062-3.32
	C-18.352,352.652-19.241,352.229-18.193,351.036z"/>
<path fill="#006C67" d="M6.856,363.631c0.102,2.108-0.106,16.925,11.439,16.609c1.895-0.208,5.55-1.578,7.652-4.634
	c1.369-1.894,2.209-0.947,1.793,1.055c-0.209,1.369-6.881,8.023-12.531,8.131s-16.22-3.952-14.533-21.263
	c0.846-4.495,5.195-16.995,18.295-15.202c3.334,0.423,7.62,3.58,8.883,11.654c0.423,2.21-0.158,4.154-4.703,3.863
	C19.698,363.624,10.442,363.618,6.856,363.631z M7.06,360.853c2.178,0.499,10.744,0.53,12.184,0.184
	c1.945-0.468,2.425-3.896-0.738-8.183C15.866,350.506,8.442,349.192,7.06,360.853z"/>
<path fill="#006C67" d="M58.467,351.206"/>
<path fill="#006C67" d="M95.216,363.611c0.102,2.128-0.113,16.944,11.439,16.629c1.894-0.208,5.549-1.578,7.651-4.634
	c1.37-1.894,2.21-0.947,1.793,1.055c-0.208,1.369-6.882,8.023-12.532,8.131c-5.649,0.107-16.218-3.952-14.532-21.263
	c0.847-4.495,5.707-16.97,18.296-15.202c3.333,0.423,7.48,3.712,8.743,11.787c0.423,1.609-0.114,3.87-4.659,3.579
	C107.962,363.466,98.782,363.561,95.216,363.611z M95.424,360.853c2.197,0.499,11.067,0.373,12.513,0.063
	c1.478-0.315,2.33-3.712-0.833-7.993C104.458,350.575,96.832,349.198,95.424,360.853z"/>
<path fill="#006C67" d="M47.11,335.127c1.028-0.871,2.278-0.612,2.947,0c0.676,0.605,1.824,1.793,2.438,2.727
	c0.611,0.929,0.258,1.895-0.354,2.728c-0.613,0.833-2.311,2.563-2.98,3.145c-0.676,0.58-1.635,0.612-2.342-0.26
	c-0.707-0.864-2.438-3.27-2.728-3.718s-0.354-1.313,0.448-2.115C45.349,336.831,46.087,335.998,47.11,335.127z"/>
<path fill="#006C67" d="M-100.075,406.313c-0.436,0.076-2.114,0.146-2.114,0.146c-0.291-3.795-9.622-6.711-9.704,3.358
	c-0.075,8.826,9.779,6.787,9.779,1.534c0,0,2.046,0.222,2.115,0c0,8.314-14.3,10.215-14.3-1.97
	C-114.299,397.709-99.999,399.679-100.075,406.313z"/>
<path fill="#006C67" d="M-97.184,409.313c0,3.643,2.525,6.597,5.644,6.597c3.119,0,5.645-2.954,5.645-6.597
	s-2.525-6.598-5.645-6.598C-94.652,402.715-97.184,405.67-97.184,409.313z M-99.488,409.313c0-4.798,3.562-8.688,7.955-8.688
	s7.954,3.89,7.954,8.688s-3.561,8.687-7.954,8.687S-99.488,414.11-99.488,409.313z"/>
<path fill="#006C67" d="M35.671,409.521c0,3.643,2.531,6.598,5.644,6.598c3.118,0,5.644-2.955,5.644-6.598s-2.525-6.598-5.644-6.598
	C38.195,402.924,35.671,405.878,35.671,409.521z M33.36,409.521c0-4.798,3.561-8.687,7.954-8.687s7.954,3.889,7.954,8.687
	c0,4.799-3.561,8.688-7.954,8.688S33.36,414.319,33.36,409.521z"/>
<path fill="#006C67" d="M33.171,406.478c-0.436,0.076-2.115,0.146-2.115,0.146c-0.291-3.794-9.621-6.711-9.703,3.358
	c-0.076,8.826,9.778,6.787,9.778,1.534c0,0,2.046,0.222,2.115,0c0,8.314-14.3,10.215-14.3-1.97
	C18.946,397.866,33.246,399.836,33.171,406.478z"/>
<rect x="-16.672" y="401.427" fill="#006C67" width="2.09" height="16.289"/>
<polygon fill="#006C67" points="-82.189,401.427 -79.33,401.383 -74.317,414.54 -69.299,401.383 -66.445,401.427 -66.445,417.716 
	-68.534,417.716 -68.534,404.912 -73.459,417.81 -75.17,417.81 -80.101,404.912 -80.101,417.716 -82.189,417.716 "/>
<polygon fill="#006C67" points="-64.463,401.427 -61.603,401.383 -56.584,414.54 -51.571,401.383 -48.711,401.427 -48.711,417.716 
	-50.801,417.716 -50.801,404.912 -55.731,417.81 -57.442,417.81 -62.366,404.912 -62.366,417.716 -64.463,417.716 "/>
<path fill="#006C67" d="M-46.805,401.427h2.09l0.038,11.131c0,2.449,1.887,3.643,4.033,3.611c2.153-0.038,4.161-0.84,4.142-3.682
	l0.038-11.13h2.09v11.825c0.006,2.039-1.162,5.069-6.27,5.031c-5.106-0.037-6.168-2.848-6.155-4.955v-11.832H-46.805z"/>
<path fill="#006C67" d="M-21.773,401.427h2.09v16.289h-2.09l-8.491-12.772v12.772h-2.089v-16.289h2.089
	c0,0,6.401,9.893,8.491,13.183V401.427z"/>
<polygon fill="#006C67" points="50.821,401.427 52.911,401.427 52.911,415.752 61.302,415.752 61.302,417.911 50.821,417.911 
	50.821,417.716 50.821,415.752 "/>
<polygon fill="#006C67" points="62.204,401.427 64.294,401.427 64.294,415.752 72.678,415.752 72.678,417.911 62.204,417.911 
	62.204,417.716 62.204,415.752 "/>
<polygon fill="#006C67" points="75.821,401.383 85.304,401.383 85.304,403.536 75.821,403.536 75.821,408.384 84.243,408.384 
	84.243,410.544 75.821,410.544 75.821,415.512 85.304,415.512 85.304,417.665 73.731,417.671 73.731,401.383 "/>
<polygon fill="#006C67" points="104.281,401.383 113.757,401.383 113.757,403.536 104.281,403.536 104.281,408.384 112.696,408.384 
	112.696,410.544 104.281,410.544 104.281,415.512 113.757,415.512 113.757,417.665 102.186,417.671 102.186,401.383 "/>
<path fill="#006C67" d="M93.429,409.161h6.977l0.006,1.155v7.632h-1.969v-2.404c-3.775,4.658-12.734,3.428-12.665-5.998
	c0.083-11.111,14.287-10.082,14.229-3.062c-0.436,0.075-2.114,0.146-2.114,0.146c0.278-3.959-10.013-6.219-9.703,3.357
	c0.265,8.283,9.792,7.986,9.981,1.149h-4.735v-1.976H93.429z"/>
<path fill="#006C67" d="M-115.176,453.378c15.177-7.001,70.846-23.346,97.405-20.72c10.505,1.749,13.719,8.466,12.26,18.681
	c-1.168,5.252,4.375,9.047,23.057,1.168c18.68-7.879,63.914-30.934,97.48-14.299c0,5.543,0,11.963,0,11.963
	c-38.523-18.681-71.212,6.42-97.771,15.177c-31.206,10.29-35.492-2.096-32.689-15.757c2.336-11.383-36.483-8.757-99.741,16.344
	C-115.245,462.134-115.176,462.425-115.176,453.378z"/>
<path fill="#006C67" d="M-84.405,335.714c0.662-0.745,0.833-1.104,2.316-0.94s5.455,0.019,7.272-1.957
	c1.073-1.237,2.64-1.168,2.393,0.662c-0.239,1.78-0.485,8.201-0.649,20.253c0.265,0.038,0.58-0.013,0.946-0.233
	c1.604-0.947,2.917-2.261,6.932-4.741c2.405-1.604,9.925-0.581,11.452,4.45c0.802,2.191,0.436,20.941,0.512,23.713
	c0.146,2.114,0.221,4.45,3.939,4.816c1.022,0.221,2.336-0.146,0.436,2.115c-0.512,0.581-4.016-0.291-6.421-0.221
	c-2.405,0.075-5.328,0.221-6.351,0.436c-1.022,0.221-1.458-0.512-0.436-1.604c1.022-1.093,1.824-0.732,2.19-2.191
	c0.366-1.458,1.093-21.086-0.075-24.444c-0.07-3.112-8.934-6.56-13.207,3.245c-0.177,10.738-0.386,19.621,0.562,21.017
	c1.073,1.578,1.97,1.414,3.719,1.66c1.25,0.246,1.319,0.663,0.164,1.9c-0.581,0.663-4.95-0.315-7.267-0.164
	c-2.064,0.133-5.12-0.038-6.439,0.29s-1.635-0.612-0.732-1.604c0.909-0.991,2.702-1.092,3.024-1.635
	c0.953-1.629,1.016-29.053,0.915-33.529c-0.164-7.203,0.84-10.328-4.615-10.126C-84.57,336.895-85.068,336.452-84.405,335.714z"/>
<polygon fill="#006C67" points="5.102,409.237 9.71,401.383 12.464,401.383 6.22,411.384 6.22,417.716 4.123,417.716 4.123,411.503 
	-0.801,403.536 -6.382,403.536 -6.382,417.671 -8.472,417.671 -8.472,403.536 -13.566,403.536 -13.566,401.383 0.557,401.383 "/>
<rect x="-115.101" y="392.942" fill="#006C67" width="229.994" height="1.433"/>
<path fill="#006C67" d="M56.435,351.011c1.313-1.023,3.358-0.146,5.693-0.947c2.097-0.72,2.191-1.168,3.063-1.749
	c0.877-0.58,2.127,0.271,1.604,1.604c-0.354,0.903-0.58,2.21-0.713,4.142c0.227-0.069,0.486-0.202,0.789-0.417
	c1.521-1.079,2.48-1.533,6.565-4.305c2.336-1.459,9.849-1.749,11.749,3.869c0.801,2.191,0.365,21.162,0.436,23.934
	c0.145,2.115,0.29,4.229,4.015,4.596c1.022,0.221,2.336-0.146,0.436,2.115c-0.511,0.581-4.015-0.291-6.421-0.221
	c-2.404,0.075-5.328,0.221-6.344,0.436c-1.023,0.221-1.459-0.512-0.436-1.604c1.022-1.093,1.824-0.732,2.19-2.191
	c0.366-1.458,1.168-20.574,0-23.933c-0.341-4.224-8.958-6.541-13.125,2.393l-0.013,1.844c0,5.909-0.291,16.78,0.221,18.681
	c0.512,1.894,0.656,1.748,4.16,2.48c1.824,0.436,0.291,2.19-1.458,2.046c-1.749-0.146-3.864-0.588-6.199-0.436
	c-1.282,0.082-3.668,0.246-5.581,0.359c-0.277,0.146-0.619,0.233-0.984,0.228c-1.718-0.038-9.192-0.732-12.804-0.038
	c-1.218,0.202-2.046,0.284-2.272-0.044c-2.684-0.151-8.688-0.587-11.813,0.013c-1.786,0.29-2.727,0.334-2.189-0.802
	c0.656-1.39,1.457-0.802,2.588-1.933c1.13-1.13,1.237-2.664,1.313-8.794c0.076-6.13,0.076-31.155,0-31.666
	c-0.075-0.512,0.045-3.902-3.965-3.763c-1.389,0.145-2.032-0.025-0.782-1.585c0.53-0.562,0.436-0.397,1.976-0.53
	c5.14,0.019,6.301-1.004,7.924-2.329c0.479-0.392,0.6-1.073,1.565-0.158c0.423,0.461,0.36,0.189,0.271,1.181
	c0,0-0.499,0.467-0.644,10.536c-0.146,10.069-0.732,32.469,0,34.515c0.732,2.045,0.656,3.207,4.305,3.282
	c0.373,0.007,0.695,0.038,0.96,0.089c0.341-0.14,0.726-0.322,1.155-0.745c1.13-1.13,1.389-3.03,1.459-9.154
	c0.075-6.13,0.057-14.811,0-15.322c-0.184-1.748-0.512-3.648-2.879-3.756c-1.39,0.146-1.945-0.082-0.695-1.642
	c0.531-0.562,0.436-0.397,1.977-0.53c3.637,0.057,5.201-0.947,6.521-1.988c0.486-0.386,0.6-1.073,1.565-0.158
	c0.423,0.461,0.36,0.189,0.271,1.181c0,0-0.379,0.328-0.524,10.397c-0.145,10.069-0.473,16.818,0.253,18.864
	c0.732,2.045,1.022,2.771,4.015,2.809c0.342-0.095,0.714-0.157,1.168-0.183c3.207-1.237,2.992-1.824,2.992-11.237
	s0.437-16.926-0.877-17.437C57.603,352.469,54.679,352.614,56.435,351.011z"/>
</svg>
