<?xml version="1.0" encoding="utf-8"?>
<!-- Generator: Adobe Illustrator 24.1.0, SVG Export Plug-In . SVG Version: 6.00 Build 0)  -->
<svg version="1.0" xmlns="http://www.w3.org/2000/svg" xmlns:xlink="http://www.w3.org/1999/xlink" x="0px" y="0px"
	 viewBox="0 0 792 612" style="enable-background:new 0 0 792 612;" xml:space="preserve">
<style type="text/css">
	.st0{fill-rule:evenodd;clip-rule:evenodd;fill:#006C67;}
	.st1{fill:#006C67;}
</style>
<path class="st0" d="M207.42,218.37c1.95-9.12,15.01-21.95,33.49-17.72c4.77,0.87,6.66,0.98,10.24-0.33
	c1.41-0.54,2.06,0.76,0.98,4.56c-1.08,3.8-0.11,10.56,0.11,12.3c0.22,1.74-3.94,5.64-4.16,1.95c-0.22-2.6-0.72-11.21-14.43-12.3
	c-9.58-0.87-15.8,2.86-16.02,11.43c-0.23,9.15,10.61,10.83,20.47,13.67c18.59,5.35,18.16,16.31,18.16,19.82
	c0,5.57-5.08,17.83-22.64,22.53c-5.75,1.41-17.68-0.51-20.76-1.08c-2.28,0.54-4.34,1.63-5.32,1.63c-0.98,0-1.35-1.18-0.76-6.4
	c0.98-8.61-1.74-12.22,0.33-14.5c2.06-2.28,3.04-2.9,3.58,1.77c0.54,2.17,3,11.83,18.95,12.23c6.08,0.25,15.73-1.7,15.41-14.87
	c-0.21-8.68-10.53-10.85-14.68-12.05C226.66,238.84,205.03,237.51,207.42,218.37z"/>
<path class="st0" d="M331.12,223.01c-12.13,0.35-12.83,11.79-12.94,21.96c-0.11,9.48,4.28,22.31,15.6,22.08
	c11.33-0.23,15.26-9.01,13.75-24.73C346.03,226.59,337.59,222.78,331.12,223.01z M308.35,251.44c-0.35-13.18,2.43-21.38,12.14-28.78
	c9.71-7.4,19.53-10.75,30.86,0c4.39,4.28,14.58,28.84-5.78,44.96C329.5,281.26,309.5,271.9,308.35,251.44z"/>
<path class="st0" d="M358.53,221.2c1.65-2.06,5.18-0.21,8.3-1.37c1.11-0.41,3.76-1.27,5.56-3.32c0.32-0.36,2.5-0.21,2.4,1.15
	c0,0-0.79,4.19-0.73,7.26c0.06,1.27,0.23,1.21,1.33,0.12c1.1-1.1,4.9-5.1,6.59-7.11c1.56-1.85,6.93-3.35,11.33,0.23
	c1.04,1.16,0.52,1.56-0.06,2.72c-0.69,1.97-3.12,4.28-4.1,6.18c-0.81,1.57-2.24-0.19-2.66-0.81c-1.07-1.59-5.06-3.52-7.97,0.46
	c-2.54,3.35-4.62,4.85-4.51,18.38c0.12,13.52-0.81,19.88,1.5,22.31c1.5,1.62,3.55,2.28,7.05,2.2c0.81-0.03,3.21-0.03,1.56,2.14
	c-1.5,1.91-2.6,1.36-3.76,1.39c-1.16,0.03-7.8-0.69-12.14-0.52c-4.33,0.17-7.62,0.59-9.48,0.69c-1.1,0.06-1.25-0.72-0.42-1.96
	c0.82-1.24,1.04-1.37,2.74-1.78c0.74-0.2,2.77-1.34,3.11-4.93c0.35-3.58,0.35-34.21,0.12-35.71c-0.23-1.5-0.93-5.37-4.85-5.26
	C358.28,223.76,356.87,223.09,358.53,221.2z"/>
<path class="st0" d="M398.21,241.15c0.16,3.34-0.17,26.81,18.12,26.31c3-0.33,8.79-2.5,12.12-7.34c2.17-3,3.5-1.5,2.84,1.67
	c-0.33,2.17-10.9,12.71-19.85,12.88c-8.95,0.17-25.69-6.26-23.02-33.68c1.34-7.12,8.23-26.92,28.98-24.08
	c5.28,0.67,12.07,5.67,14.07,18.46c0.67,3.5-0.25,6.58-7.45,6.12C418.55,241.14,403.89,241.13,398.21,241.15z M398.53,236.75
	c3.45,0.79,17.02,0.84,19.3,0.29c3.08-0.74,3.84-6.17-1.17-12.96C412.48,220.36,400.72,218.28,398.53,236.75z"/>
<path class="st1" d="M479.96,221.47"/>
<path class="st0" d="M538.17,241.12c0.16,3.37-0.18,26.84,18.12,26.34c3-0.33,8.79-2.5,12.12-7.34c2.17-3,3.5-1.5,2.84,1.67
	c-0.33,2.17-10.9,12.71-19.85,12.88c-8.95,0.17-25.69-6.26-23.02-33.68c1.34-7.12,9.04-26.88,28.98-24.08
	c5.28,0.67,11.85,5.88,13.85,18.67c0.67,2.55-0.18,6.13-7.38,5.67C558.36,240.89,543.82,241.04,538.17,241.12z M538.5,236.75
	c3.48,0.79,17.53,0.59,19.82,0.1c2.34-0.5,3.69-5.88-1.32-12.66C552.81,220.47,540.73,218.29,538.5,236.75z"/>
<path class="st0" d="M461.97,196c1.63-1.38,3.61-0.97,4.67,0c1.07,0.96,2.89,2.84,3.86,4.32c0.97,1.47,0.41,3-0.56,4.32
	c-0.97,1.32-3.66,4.06-4.72,4.98c-1.07,0.92-2.59,0.97-3.71-0.41c-1.12-1.37-3.86-5.18-4.32-5.89c-0.46-0.71-0.56-2.08,0.71-3.35
	C459.18,198.7,460.35,197.38,461.97,196z"/>
<path class="st0" d="M228.83,308.76c-0.69,0.12-3.35,0.23-3.35,0.23c-0.46-6.01-15.24-10.63-15.37,5.32
	c-0.12,13.98,15.49,10.75,15.49,2.43c0,0,3.24,0.35,3.35,0c0,13.17-22.65,16.18-22.65-3.12
	C206.3,295.13,228.95,298.25,228.83,308.76z"/>
<path class="st1" d="M233.41,313.51c0,5.77,4,10.45,8.94,10.45c4.94,0,8.94-4.68,8.94-10.45c0-5.77-4-10.45-8.94-10.45
	C237.42,303.06,233.41,307.74,233.41,313.51z M229.76,313.51c0-7.6,5.64-13.76,12.6-13.76c6.96,0,12.6,6.16,12.6,13.76
	c0,7.6-5.64,13.76-12.6,13.76C235.4,327.27,229.76,321.11,229.76,313.51z"/>
<path class="st1" d="M443.85,313.84c0,5.77,4.01,10.45,8.94,10.45c4.94,0,8.94-4.68,8.94-10.45c0-5.77-4-10.45-8.94-10.45
	C447.85,303.39,443.85,308.07,443.85,313.84z M440.19,313.84c0-7.6,5.64-13.76,12.6-13.76c6.96,0,12.6,6.16,12.6,13.76
	c0,7.6-5.64,13.76-12.6,13.76C445.83,327.6,440.19,321.44,440.19,313.84z"/>
<path class="st0" d="M439.89,309.02c-0.69,0.12-3.35,0.23-3.35,0.23c-0.46-6.01-15.24-10.63-15.37,5.32
	c-0.12,13.98,15.49,10.75,15.49,2.43c0,0,3.24,0.35,3.35,0c0,13.17-22.65,16.18-22.65-3.12
	C417.36,295.38,440.01,298.5,439.89,309.02z"/>
<rect x="360.94" y="301.02" class="st1" width="3.31" height="25.8"/>
<polygon class="st1" points="257.16,301.02 261.69,300.95 269.63,321.79 277.58,300.95 282.1,301.02 282.1,326.82 278.79,326.82 
	278.79,306.54 270.99,326.97 268.28,326.97 260.47,306.54 260.47,326.82 257.16,326.82 "/>
<polygon class="st1" points="285.24,301.02 289.77,300.95 297.72,321.79 305.66,300.95 310.19,301.02 310.19,326.82 306.88,326.82 
	306.88,306.54 299.07,326.97 296.36,326.97 288.56,306.54 288.56,326.82 285.24,326.82 "/>
<path class="st1" d="M313.21,301.02h3.31l0.06,17.63c0,3.88,2.99,5.77,6.39,5.72c3.41-0.06,6.59-1.33,6.56-5.83l0.06-17.63h3.31
	v18.73c0.01,3.23-1.84,8.03-9.93,7.97c-8.09-0.06-9.77-4.51-9.75-7.85V301.02z"/>
<path class="st1" d="M352.86,301.02h3.31v25.8h-3.31l-13.45-20.23v20.23h-3.31v-25.8h3.31c0,0,10.14,15.67,13.45,20.88V301.02z"/>
<polygon class="st1" points="467.85,301.02 471.16,301.02 471.16,323.71 484.45,323.71 484.45,327.13 467.85,327.13 467.85,326.82 
	467.85,323.71 "/>
<polygon class="st1" points="485.88,301.02 489.19,301.02 489.19,323.71 502.47,323.71 502.47,327.13 485.88,327.13 485.88,326.82 
	485.88,323.71 "/>
<polygon class="st1" points="507.45,300.95 522.47,300.95 522.47,304.36 507.45,304.36 507.45,312.04 520.79,312.04 520.79,315.46 
	507.45,315.46 507.45,323.33 522.47,323.33 522.47,326.74 504.14,326.75 504.14,300.95 "/>
<polygon class="st1" points="552.53,300.95 567.54,300.95 567.54,304.36 552.53,304.36 552.53,312.04 565.86,312.04 565.86,315.46 
	552.53,315.46 552.53,323.33 567.54,323.33 567.54,326.74 549.21,326.75 549.21,300.95 "/>
<path class="st1" d="M535.34,313.27h11.05l0.01,1.83v12.09h-3.12v-3.81c-5.98,7.38-20.17,5.43-20.06-9.5
	c0.13-17.6,22.63-15.97,22.54-4.85c-0.69,0.12-3.35,0.23-3.35,0.23c0.44-6.27-15.86-9.85-15.37,5.32
	c0.42,13.12,15.51,12.65,15.81,1.82h-7.5V313.27z"/>
<path class="st0" d="M204.91,383.31c24.04-11.09,112.22-36.98,154.29-32.82c16.64,2.77,21.73,13.41,19.42,29.59
	c-1.85,8.32,6.93,14.33,36.52,1.85c29.59-12.48,101.24-49,154.41-22.65c0,8.78,0,18.95,0,18.95
	c-61.02-29.59-112.8,10.17-154.87,24.04c-49.43,16.3-56.22-3.32-51.78-24.96c3.7-18.03-57.79-13.87-157.99,25.89
	C204.8,397.18,204.91,397.64,204.91,383.31z"/>
<path class="st1" d="M253.65,196.93c1.05-1.18,1.32-1.75,3.67-1.49c2.35,0.26,8.64,0.03,11.52-3.1c1.7-1.96,4.18-1.85,3.79,1.05
	c-0.38,2.82-0.77,12.99-1.03,32.08c0.42,0.06,0.92-0.02,1.5-0.37c2.54-1.5,4.62-3.58,10.98-7.51c3.81-2.54,15.72-0.92,18.14,7.05
	c1.27,3.47,0.69,33.17,0.81,37.56c0.23,3.35,0.35,7.05,6.24,7.63c1.62,0.35,3.7-0.23,0.69,3.35c-0.81,0.92-6.36-0.46-10.17-0.35
	c-3.81,0.12-8.44,0.35-10.06,0.69c-1.62,0.35-2.31-0.81-0.69-2.54c1.62-1.73,2.89-1.16,3.47-3.47c0.58-2.31,1.73-33.4-0.12-38.72
	c-0.11-4.93-14.15-10.39-20.92,5.14c-0.28,17.01-0.61,31.08,0.89,33.29c1.7,2.5,3.12,2.24,5.89,2.63c1.98,0.39,2.09,1.05,0.26,3.01
	c-0.92,1.05-7.84-0.5-11.51-0.26c-3.27,0.21-8.11-0.06-10.2,0.46c-2.09,0.52-2.59-0.97-1.16-2.54c1.44-1.57,4.28-1.73,4.79-2.59
	c1.51-2.58,1.61-46.02,1.45-53.11c-0.26-11.41,1.33-16.36-7.31-16.04C253.39,198.8,252.6,198.1,253.65,196.93z"/>
<polygon class="st1" points="395.43,313.39 402.73,300.95 407.09,300.95 397.2,316.79 397.2,326.82 393.88,326.82 393.88,316.98 
	386.08,304.36 377.24,304.36 377.24,326.75 373.93,326.75 373.93,304.36 365.86,304.36 365.86,300.95 388.23,300.95 "/>
<rect x="205.03" y="287.58" class="st1" width="364.31" height="2.27"/>
<path class="st1" d="M476.74,221.16c2.08-1.62,5.32-0.23,9.02-1.5c3.32-1.14,3.47-1.85,4.85-2.77c1.39-0.92,3.37,0.43,2.54,2.54
	c-0.56,1.43-0.92,3.5-1.13,6.56c0.36-0.11,0.77-0.32,1.25-0.66c2.41-1.71,3.93-2.43,10.4-6.82c3.7-2.31,15.6-2.77,18.61,6.13
	c1.27,3.47,0.58,33.52,0.69,37.91c0.23,3.35,0.46,6.7,6.36,7.28c1.62,0.35,3.7-0.23,0.69,3.35c-0.81,0.92-6.36-0.46-10.17-0.35
	c-3.81,0.12-8.44,0.35-10.05,0.69c-1.62,0.35-2.31-0.81-0.69-2.54c1.62-1.73,2.89-1.16,3.47-3.47c0.58-2.31,1.85-32.59,0-37.91
	c-0.54-6.69-14.19-10.36-20.79,3.79l-0.02,2.92c0,9.36-0.46,26.58,0.35,29.59c0.81,3,1.04,2.77,6.59,3.93
	c2.89,0.69,0.46,3.47-2.31,3.24c-2.77-0.23-6.12-0.93-9.82-0.69c-2.03,0.13-5.81,0.39-8.84,0.57c-0.44,0.23-0.98,0.37-1.56,0.36
	c-2.72-0.06-14.56-1.16-20.28-0.06c-1.93,0.32-3.24,0.45-3.6-0.07c-4.25-0.24-13.76-0.93-18.71,0.02c-2.83,0.46-4.32,0.53-3.47-1.27
	c1.04-2.2,2.31-1.27,4.1-3.06c1.79-1.79,1.96-4.22,2.08-13.93c0.12-9.71,0.12-49.35,0-50.16c-0.12-0.81,0.07-6.18-6.28-5.96
	c-2.2,0.23-3.22-0.04-1.24-2.51c0.84-0.89,0.69-0.63,3.13-0.84c8.14,0.03,9.98-1.59,12.55-3.69c0.76-0.62,0.95-1.7,2.48-0.25
	c0.67,0.73,0.57,0.3,0.43,1.87c0,0-0.79,0.74-1.02,16.69c-0.23,15.95-1.16,51.43,0,54.67c1.16,3.24,1.04,5.08,6.82,5.2
	c0.59,0.01,1.1,0.06,1.52,0.14c0.54-0.22,1.15-0.51,1.83-1.18c1.79-1.79,2.2-4.8,2.31-14.5c0.12-9.71,0.09-23.46,0-24.27
	c-0.29-2.77-0.81-5.78-4.56-5.95c-2.2,0.23-3.08-0.13-1.1-2.6c0.84-0.89,0.69-0.63,3.13-0.84c5.76,0.09,8.24-1.5,10.33-3.15
	c0.77-0.61,0.95-1.7,2.48-0.25c0.67,0.73,0.57,0.3,0.43,1.87c0,0-0.6,0.52-0.83,16.47c-0.23,15.95-0.75,26.64,0.4,29.88
	c1.16,3.24,1.62,4.39,6.36,4.45c0.54-0.15,1.13-0.25,1.85-0.29c5.08-1.96,4.74-2.89,4.74-17.8c0-14.91,0.69-26.81-1.39-27.62
	C478.59,223.47,473.96,223.7,476.74,221.16z"/>
</svg>
