<?xml version="1.0" encoding="UTF-8"?>
<svg width="61px" height="36px" viewBox="0 0 61 36" version="1.1" xmlns="http://www.w3.org/2000/svg" xmlns:xlink="http://www.w3.org/1999/xlink">
    <!-- Generator: sketchtool 50.2 (55047) - http://www.bohemiancoding.com/sketch -->
    <title>3832A60A-FF80-4A17-8315-9703B8078BF3</title>
    <desc>Created with sketchtool.</desc>
    <defs></defs>
    <g id="Symbols" stroke="none" stroke-width="1" fill="none" fill-rule="evenodd">
        <g id="Icon-/-Map" transform="translate(0.000000, -14.000000)" fill="#000000" fill-rule="nonzero">
            <path d="M11.1150666,47.1886951 C11.0470349,47.5412069 10.7909073,47.8452044 10.4235059,47.9568202 C10.0239883,48.078193 9.6072727,47.9373318 9.35834875,47.6330172 L0,50 L0,17.8571429 L15.25,14 L30.5,17.8571429 L45.75,14 L61,17.8571429 L61,50 L45.75,46.1428571 L30.5,50 L15.25,46.1428571 L11.1150666,47.1886951 Z M10.6600905,45.2407904 L15.25,44.0798765 L30.5,47.9370194 L45.75,44.0798765 L59,47.4311646 L59,19.4142687 L45.75,16.0629806 L30.5,19.9201235 L15.25,16.0629806 L2,19.4142687 L2,47.4311646 L8.72051351,45.7313626 C8.49594811,44.9289571 8.29201017,44.1435795 8.10876279,43.3711084 C7.98128628,42.8337368 8.31357186,42.294771 8.85094341,42.1672945 C9.38831496,42.0398179 9.92728081,42.3721035 10.0547573,42.9094751 C10.2353253,43.6706513 10.4371212,44.4464045 10.6600905,45.2407904 Z M9.18724653,38.0972869 C9.25016488,38.645976 8.85636988,39.1417818 8.30768078,39.2047002 C7.75899168,39.2676185 7.26318588,38.8738235 7.20026753,38.3251344 C7.03364597,36.8720856 6.96885216,35.490359 7.01392464,34.1806112 C7.03291922,33.6286532 7.49576775,33.1966009 8.04772577,33.2155955 C8.59968378,33.2345901 9.03173601,33.6974386 9.01274143,34.2493967 C8.97125109,35.4550522 9.03143785,36.7385335 9.18724653,38.0972869 Z M9.81637589,29.6249973 C9.63312366,30.1459935 9.06221748,30.4197891 8.54122126,30.2365369 C8.02022504,30.0532847 7.74642943,29.4823785 7.92968166,28.9613823 C8.42849463,27.5432294 9.13295611,26.2724992 10.0547553,25.1623957 C10.4075763,24.7375007 11.0380397,24.6790733 11.4629347,25.0318943 C11.8878297,25.3847153 11.9462572,26.0151788 11.5934362,26.4400738 C10.8274011,27.3625937 10.2385025,28.4248679 9.81637589,29.6249973 Z M15.2365703,23.5228218 C14.7593839,23.8008713 14.1471441,23.6394389 13.8690946,23.1622525 C13.5910451,22.685066 13.7524775,22.0728263 14.2296639,21.7947768 C15.5805296,21.0076472 16.9408347,20.4406589 18.2359997,20.1727942 C18.7768387,20.0609385 19.3059522,20.4086981 19.4178079,20.949537 C19.5296637,21.4903759 19.1819041,22.0194895 18.6410652,22.1313452 C17.5798604,22.3508224 16.4139183,22.8367984 15.2365703,23.5228218 Z M22.4072424,23.0627128 C22.0316162,22.6578382 22.0553268,22.0251173 22.4602014,21.6494912 C22.865076,21.273865 23.4977969,21.2975756 23.873423,21.7024502 C24.0782434,21.9232191 24.2700883,22.1647837 24.4522387,22.4322543 C25.2008557,23.5464692 25.6409446,24.6814304 25.8158736,25.875727 C25.895913,26.4221812 25.517809,26.9300545 24.9713549,27.0100938 C24.4249007,27.0901331 23.9170274,26.7120292 23.8369881,26.165575 C23.7054838,25.2677534 23.3747117,24.4147132 22.7956875,23.5528782 C22.6727617,23.3723974 22.5431956,23.2092522 22.4072424,23.0627128 Z M23.2121971,30.6774258 C23.3825108,30.1520576 23.9464724,29.8642292 24.4718405,30.0345429 C24.9972086,30.2048566 25.2850371,30.7688182 25.1147234,31.2941863 C25.0288832,31.5589784 24.9386321,31.8265212 24.8194579,32.1721578 C24.190155,33.9973026 24.0884371,34.3156812 23.9522491,34.9996239 C23.8443946,35.5412749 23.3178662,35.8929365 22.7762152,35.7850819 C22.2345642,35.6772273 21.8829027,35.150699 21.9907572,34.609048 C22.1527968,33.7952769 22.2604858,33.4582088 22.9286937,31.5202295 C23.0441832,31.1852795 23.1308162,30.928462 23.2121971,30.6774258 Z M24.1986164,39.9453608 C23.7302352,39.6527219 23.5877679,39.0357933 23.8804068,38.5674121 C24.1730457,38.0990309 24.7899743,37.9565636 25.2583555,38.2492025 C26.0430059,38.7394425 27.1764027,39.169999 28.7036653,39.5342907 C29.2408791,39.6624301 29.5724995,40.2018055 29.44436,40.7390194 C29.3162206,41.2762333 28.7768452,41.6078536 28.2396313,41.4797142 C26.5178893,41.069034 25.1892989,40.5643272 24.1986164,39.9453608 Z M33.3539977,42.2831502 C32.8033,42.2413125 32.3907874,41.7609675 32.4326251,41.2102697 C32.4744628,40.659572 32.9548078,40.2470594 33.5055056,40.2888971 C34.7425488,40.382878 36.0328652,40.3987136 37.3876178,40.3418779 C37.9394171,40.3187284 38.4055053,40.7472837 38.4286549,41.2990831 C38.4518044,41.8508825 38.0232491,42.3169706 37.4714497,42.3401202 C36.041092,42.4001278 34.6726847,42.3833338 33.3539977,42.2831502 Z M42.5773516,41.8523938 C42.0304898,41.9295988 41.5245837,41.5488668 41.4473786,41.002005 C41.3701736,40.4551432 41.7509056,39.9492371 42.2977674,39.872032 C42.4630175,39.8487023 42.6295012,39.8245715 42.7972923,39.7996399 C43.8278658,39.6464562 44.8811893,39.3627556 45.9672051,38.9549481 C46.484239,38.7607978 47.0607678,39.0225467 47.2549181,39.5395807 C47.4490684,40.0566146 47.1873195,40.6331434 46.6702855,40.8272937 C45.4575282,41.2826936 44.2685922,41.6029199 43.0912897,41.7779132 C42.9187034,41.8035573 42.7474335,41.8283819 42.5773516,41.8523938 Z M51.3949667,38.3357191 C50.9691332,38.6874069 50.3388277,38.6273 49.9871399,38.2014666 C49.6354521,37.7756331 49.695559,37.1453276 50.1213924,36.7936398 C51.0816716,36.0005633 51.6647659,35.0418214 51.8919203,33.9621452 C52.0056268,33.4216923 52.5359278,33.0757461 53.0763806,33.1894526 C53.6168334,33.3031591 53.9627797,33.8334601 53.8490732,34.3739129 C53.5282838,35.8986409 52.7031947,37.2552783 51.3949667,38.3357191 Z M52.9287705,28.8043903 C53.1866767,29.2927578 52.999851,29.8977322 52.5114835,30.1556384 C52.0231159,30.4135447 51.4181416,30.2267189 51.1602353,29.7383514 C50.603133,28.6834305 49.8035648,27.7279919 48.8609888,26.9935768 C48.425333,26.6541324 48.3473383,26.0257896 48.6867827,25.5901338 C49.0262271,25.1544781 49.65457,25.0764834 50.0902257,25.4159278 C51.2564005,26.3245615 52.2396602,27.499501 52.9287705,28.8043903 Z M45,23.5324639 L45,15 L47,15 L47,45 L45,45 L45,25.4827773 C44.9325118,25.4981059 44.8623983,25.5066198 44.7904097,25.5075493 C43.6800113,25.5218856 42.5933747,25.878621 41.5642213,26.6044857 C41.1128992,26.9228044 40.4889821,26.8149839 40.1706633,26.3636618 C39.8523446,25.9123396 39.9601652,25.2884225 40.4114873,24.9701038 C41.7687168,24.0128461 43.2477174,23.5273002 44.76459,23.5077159 C44.8455479,23.5066707 44.9243829,23.5152757 45,23.5324639 Z M15.3333333,46 L23,48 L0,50 L15.3333333,46 Z M45.3333333,46 L53,48 L30,50 L45.3333333,46 Z M15,15 L17,15 L17,45 L15,45 L15,15 Z M30,19 L32,19 L32,49 L30,49 L30,19 Z" id="Combined-Shape"></path>
        </g>
    </g>
</svg>